<svg width="63" height="327" viewBox="0 0 63 327" fill="none" xmlns="http://www.w3.org/2000/svg">
<g opacity="0.2">
<path d="M-59.5 7C-57.5669 7 -56 5.43298 -56 3.5C-56 1.56702 -57.5669 0 -59.5 0C-61.4331 0 -63 1.56702 -63 3.5C-63 5.43298 -61.4331 7 -59.5 7Z" fill="#C0D3FB"/>
<path d="M-59.5 23C-57.5669 23 -56 21.433 -56 19.5C-56 17.567 -57.5669 16 -59.5 16C-61.4331 16 -63 17.567 -63 19.5C-63 21.433 -61.4331 23 -59.5 23Z" fill="#C0D3FB"/>
<path d="M-56 35.5C-56 37.433 -57.5669 39 -59.5 39C-61.4331 39 -63 37.433 -63 35.5C-63 33.567 -61.4331 32 -59.5 32C-57.5669 32 -56 33.567 -56 35.5Z" fill="#C0D3FB"/>
<path d="M-59.5 55C-57.5669 55 -56 53.433 -56 51.5C-56 49.567 -57.5669 48 -59.5 48C-61.4331 48 -63 49.567 -63 51.5C-63 53.433 -61.4331 55 -59.5 55Z" fill="#C0D3FB"/>
<path d="M-56 67.5C-56 69.433 -57.5669 71 -59.5 71C-61.4331 71 -63 69.433 -63 67.5C-63 65.567 -61.4331 64 -59.5 64C-57.5669 64 -56 65.567 -56 67.5Z" fill="#C0D3FB"/>
<path d="M-59.5 87C-57.5669 87 -56 85.433 -56 83.5C-56 81.567 -57.5669 80 -59.5 80C-61.4331 80 -63 81.567 -63 83.5C-63 85.433 -61.4331 87 -59.5 87Z" fill="#C0D3FB"/>
<path d="M-39 3.5C-39 5.43298 -40.5669 7 -42.5 7C-44.4331 7 -46 5.43298 -46 3.5C-46 1.56702 -44.4331 0 -42.5 0C-40.5669 0 -39 1.56702 -39 3.5Z" fill="#C0D3FB"/>
<path d="M-42.5 23C-40.5669 23 -39 21.433 -39 19.5C-39 17.567 -40.5669 16 -42.5 16C-44.4331 16 -46 17.567 -46 19.5C-46 21.433 -44.4331 23 -42.5 23Z" fill="#C0D3FB"/>
<path d="M-39 35.5C-39 37.433 -40.5669 39 -42.5 39C-44.4331 39 -46 37.433 -46 35.5C-46 33.567 -44.4331 32 -42.5 32C-40.5669 32 -39 33.567 -39 35.5Z" fill="#C0D3FB"/>
<path d="M-42.5 55C-40.5669 55 -39 53.433 -39 51.5C-39 49.567 -40.5669 48 -42.5 48C-44.4331 48 -46 49.567 -46 51.5C-46 53.433 -44.4331 55 -42.5 55Z" fill="#C0D3FB"/>
<path d="M-39 67.5C-39 69.433 -40.5669 71 -42.5 71C-44.4331 71 -46 69.433 -46 67.5C-46 65.567 -44.4331 64 -42.5 64C-40.5669 64 -39 65.567 -39 67.5Z" fill="#C0D3FB"/>
<path d="M-42.5 87C-40.5669 87 -39 85.433 -39 83.5C-39 81.567 -40.5669 80 -42.5 80C-44.4331 80 -46 81.567 -46 83.5C-46 85.433 -44.4331 87 -42.5 87Z" fill="#C0D3FB"/>
<path d="M-22 3.5C-22 5.43298 -23.5669 7 -25.5 7C-27.4331 7 -29 5.43298 -29 3.5C-29 1.56702 -27.4331 0 -25.5 0C-23.5669 0 -22 1.56702 -22 3.5Z" fill="#C0D3FB"/>
<path d="M-25.5 23C-23.5669 23 -22 21.433 -22 19.5C-22 17.567 -23.5669 16 -25.5 16C-27.4331 16 -29 17.567 -29 19.5C-29 21.433 -27.4331 23 -25.5 23Z" fill="#C0D3FB"/>
<path d="M-22 35.5C-22 37.433 -23.5669 39 -25.5 39C-27.4331 39 -29 37.433 -29 35.5C-29 33.567 -27.4331 32 -25.5 32C-23.5669 32 -22 33.567 -22 35.5Z" fill="#C0D3FB"/>
<path d="M-25.5 55C-23.5669 55 -22 53.433 -22 51.5C-22 49.567 -23.5669 48 -25.5 48C-27.4331 48 -29 49.567 -29 51.5C-29 53.433 -27.4331 55 -25.5 55Z" fill="#C0D3FB"/>
<path d="M-22 67.5C-22 69.433 -23.5669 71 -25.5 71C-27.4331 71 -29 69.433 -29 67.5C-29 65.567 -27.4331 64 -25.5 64C-23.5669 64 -22 65.567 -22 67.5Z" fill="#C0D3FB"/>
<path d="M-25.5 87C-23.5669 87 -22 85.433 -22 83.5C-22 81.567 -23.5669 80 -25.5 80C-27.4331 80 -29 81.567 -29 83.5C-29 85.433 -27.4331 87 -25.5 87Z" fill="#C0D3FB"/>
<path d="M-5 3.5C-5 5.43298 -6.56689 7 -8.5 7C-10.4331 7 -12 5.43298 -12 3.5C-12 1.56702 -10.4331 0 -8.5 0C-6.56689 0 -5 1.56702 -5 3.5Z" fill="#C0D3FB"/>
<path d="M-8.5 23C-6.56689 23 -5 21.433 -5 19.5C-5 17.567 -6.56689 16 -8.5 16C-10.4331 16 -12 17.567 -12 19.5C-12 21.433 -10.4331 23 -8.5 23Z" fill="#C0D3FB"/>
<path d="M-5 35.5C-5 37.433 -6.56689 39 -8.5 39C-10.4331 39 -12 37.433 -12 35.5C-12 33.567 -10.4331 32 -8.5 32C-6.56689 32 -5 33.567 -5 35.5Z" fill="#C0D3FB"/>
<path d="M-8.5 55C-6.56689 55 -5 53.433 -5 51.5C-5 49.567 -6.56689 48 -8.5 48C-10.4331 48 -12 49.567 -12 51.5C-12 53.433 -10.4331 55 -8.5 55Z" fill="#C0D3FB"/>
<path d="M-5 67.5C-5 69.433 -6.56689 71 -8.5 71C-10.4331 71 -12 69.433 -12 67.5C-12 65.567 -10.4331 64 -8.5 64C-6.56689 64 -5 65.567 -5 67.5Z" fill="#C0D3FB"/>
<path d="M-8.5 87C-6.56689 87 -5 85.433 -5 83.5C-5 81.567 -6.56689 80 -8.5 80C-10.4331 80 -12 81.567 -12 83.5C-12 85.433 -10.4331 87 -8.5 87Z" fill="#C0D3FB"/>
<path d="M-56 99.5C-56 101.433 -57.5669 103 -59.5 103C-61.4331 103 -63 101.433 -63 99.5C-63 97.567 -61.4331 96 -59.5 96C-57.5669 96 -56 97.567 -56 99.5Z" fill="#C0D3FB"/>
<path d="M-42.5 103C-40.5669 103 -39 101.433 -39 99.5C-39 97.567 -40.5669 96 -42.5 96C-44.4331 96 -46 97.567 -46 99.5C-46 101.433 -44.4331 103 -42.5 103Z" fill="#C0D3FB"/>
<path d="M-22 99.5C-22 101.433 -23.5669 103 -25.5 103C-27.4331 103 -29 101.433 -29 99.5C-29 97.567 -27.4331 96 -25.5 96C-23.5669 96 -22 97.567 -22 99.5Z" fill="#C0D3FB"/>
<path d="M-8.5 103C-6.56689 103 -5 101.433 -5 99.5C-5 97.567 -6.56689 96 -8.5 96C-10.4331 96 -12 97.567 -12 99.5C-12 101.433 -10.4331 103 -8.5 103Z" fill="#C0D3FB"/>
<path d="M8.5 7C10.4331 7 12 5.43298 12 3.5C12 1.56702 10.4331 0 8.5 0C6.56689 0 5 1.56702 5 3.5C5 5.43298 6.56689 7 8.5 7Z" fill="#C0D3FB"/>
<path d="M12 19.5C12 21.433 10.4331 23 8.5 23C6.56689 23 5 21.433 5 19.5C5 17.567 6.56689 16 8.5 16C10.4331 16 12 17.567 12 19.5Z" fill="#C0D3FB"/>
<path d="M8.5 39C10.4331 39 12 37.433 12 35.5C12 33.567 10.4331 32 8.5 32C6.56689 32 5 33.567 5 35.5C5 37.433 6.56689 39 8.5 39Z" fill="#C0D3FB"/>
<path d="M12 51.5C12 53.433 10.4331 55 8.5 55C6.56689 55 5 53.433 5 51.5C5 49.567 6.56689 48 8.5 48C10.4331 48 12 49.567 12 51.5Z" fill="#C0D3FB"/>
<path d="M8.5 71C10.4331 71 12 69.433 12 67.5C12 65.567 10.4331 64 8.5 64C6.56689 64 5 65.567 5 67.5C5 69.433 6.56689 71 8.5 71Z" fill="#C0D3FB"/>
<path d="M12 83.5C12 85.433 10.4331 87 8.5 87C6.56689 87 5 85.433 5 83.5C5 81.567 6.56689 80 8.5 80C10.4331 80 12 81.567 12 83.5Z" fill="#C0D3FB"/>
<path d="M25.5 7C27.4331 7 29 5.43298 29 3.5C29 1.56702 27.4331 0 25.5 0C23.5669 0 22 1.56702 22 3.5C22 5.43298 23.5669 7 25.5 7Z" fill="#C0D3FB"/>
<path d="M29 19.5C29 21.433 27.4331 23 25.5 23C23.5669 23 22 21.433 22 19.5C22 17.567 23.5669 16 25.5 16C27.4331 16 29 17.567 29 19.5Z" fill="#C0D3FB"/>
<path d="M25.5 39C27.4331 39 29 37.433 29 35.5C29 33.567 27.4331 32 25.5 32C23.5669 32 22 33.567 22 35.5C22 37.433 23.5669 39 25.5 39Z" fill="#C0D3FB"/>
<path d="M29 51.5C29 53.433 27.4331 55 25.5 55C23.5669 55 22 53.433 22 51.5C22 49.567 23.5669 48 25.5 48C27.4331 48 29 49.567 29 51.5Z" fill="#C0D3FB"/>
<path d="M25.5 71C27.4331 71 29 69.433 29 67.5C29 65.567 27.4331 64 25.5 64C23.5669 64 22 65.567 22 67.5C22 69.433 23.5669 71 25.5 71Z" fill="#C0D3FB"/>
<path d="M29 83.5C29 85.433 27.4331 87 25.5 87C23.5669 87 22 85.433 22 83.5C22 81.567 23.5669 80 25.5 80C27.4331 80 29 81.567 29 83.5Z" fill="#C0D3FB"/>
<path d="M42.5 7C44.4331 7 46 5.43298 46 3.5C46 1.56702 44.4331 0 42.5 0C40.5669 0 39 1.56702 39 3.5C39 5.43298 40.5669 7 42.5 7Z" fill="#C0D3FB"/>
<path d="M46 19.5C46 21.433 44.4331 23 42.5 23C40.5669 23 39 21.433 39 19.5C39 17.567 40.5669 16 42.5 16C44.4331 16 46 17.567 46 19.5Z" fill="#C0D3FB"/>
<path d="M42.5 39C44.4331 39 46 37.433 46 35.5C46 33.567 44.4331 32 42.5 32C40.5669 32 39 33.567 39 35.5C39 37.433 40.5669 39 42.5 39Z" fill="#C0D3FB"/>
<path d="M46 51.5C46 53.433 44.4331 55 42.5 55C40.5669 55 39 53.433 39 51.5C39 49.567 40.5669 48 42.5 48C44.4331 48 46 49.567 46 51.5Z" fill="#C0D3FB"/>
<path d="M42.5 71C44.4331 71 46 69.433 46 67.5C46 65.567 44.4331 64 42.5 64C40.5669 64 39 65.567 39 67.5C39 69.433 40.5669 71 42.5 71Z" fill="#C0D3FB"/>
<path d="M46 83.5C46 85.433 44.4331 87 42.5 87C40.5669 87 39 85.433 39 83.5C39 81.567 40.5669 80 42.5 80C44.4331 80 46 81.567 46 83.5Z" fill="#C0D3FB"/>
<path d="M59.5 7C61.4331 7 63 5.43298 63 3.5C63 1.56702 61.4331 0 59.5 0C57.5669 0 56 1.56702 56 3.5C56 5.43298 57.5669 7 59.5 7Z" fill="#C0D3FB"/>
<path d="M63 19.5C63 21.433 61.4331 23 59.5 23C57.5669 23 56 21.433 56 19.5C56 17.567 57.5669 16 59.5 16C61.4331 16 63 17.567 63 19.5Z" fill="#C0D3FB"/>
<path d="M59.5 39C61.4331 39 63 37.433 63 35.5C63 33.567 61.4331 32 59.5 32C57.5669 32 56 33.567 56 35.5C56 37.433 57.5669 39 59.5 39Z" fill="#C0D3FB"/>
<path d="M63 51.5C63 53.433 61.4331 55 59.5 55C57.5669 55 56 53.433 56 51.5C56 49.567 57.5669 48 59.5 48C61.4331 48 63 49.567 63 51.5Z" fill="#C0D3FB"/>
<path d="M59.5 71C61.4331 71 63 69.433 63 67.5C63 65.567 61.4331 64 59.5 64C57.5669 64 56 65.567 56 67.5C56 69.433 57.5669 71 59.5 71Z" fill="#C0D3FB"/>
<path d="M63 83.5C63 85.433 61.4331 87 59.5 87C57.5669 87 56 85.433 56 83.5C56 81.567 57.5669 80 59.5 80C61.4331 80 63 81.567 63 83.5Z" fill="#C0D3FB"/>
<path d="M12 99.5C12 101.433 10.4331 103 8.5 103C6.56689 103 5 101.433 5 99.5C5 97.567 6.56689 96 8.5 96C10.4331 96 12 97.567 12 99.5Z" fill="#C0D3FB"/>
<path d="M25.5 103C27.4331 103 29 101.433 29 99.5C29 97.567 27.4331 96 25.5 96C23.5669 96 22 97.567 22 99.5C22 101.433 23.5669 103 25.5 103Z" fill="#C0D3FB"/>
<path d="M46 99.5C46 101.433 44.4331 103 42.5 103C40.5669 103 39 101.433 39 99.5C39 97.567 40.5669 96 42.5 96C44.4331 96 46 97.567 46 99.5Z" fill="#C0D3FB"/>
<path d="M59.5 103C61.4331 103 63 101.433 63 99.5C63 97.567 61.4331 96 59.5 96C57.5669 96 56 97.567 56 99.5C56 101.433 57.5669 103 59.5 103Z" fill="#C0D3FB"/>
<path d="M-56 115.5C-56 117.433 -57.5669 119 -59.5 119C-61.4331 119 -63 117.433 -63 115.5C-63 113.567 -61.4331 112 -59.5 112C-57.5669 112 -56 113.567 -56 115.5Z" fill="#C0D3FB"/>
<path d="M-56 131.5C-56 133.433 -57.5669 135 -59.5 135C-61.4331 135 -63 133.433 -63 131.5C-63 129.567 -61.4331 128 -59.5 128C-57.5669 128 -56 129.567 -56 131.5Z" fill="#C0D3FB"/>
<path d="M-59.5 151C-57.5669 151 -56 149.433 -56 147.5C-56 145.567 -57.5669 144 -59.5 144C-61.4331 144 -63 145.567 -63 147.5C-63 149.433 -61.4331 151 -59.5 151Z" fill="#C0D3FB"/>
<path d="M-56 163.5C-56 165.433 -57.5669 167 -59.5 167C-61.4331 167 -63 165.433 -63 163.5C-63 161.567 -61.4331 160 -59.5 160C-57.5669 160 -56 161.567 -56 163.5Z" fill="#C0D3FB"/>
<path d="M-59.5 183C-57.5669 183 -56 181.433 -56 179.5C-56 177.567 -57.5669 176 -59.5 176C-61.4331 176 -63 177.567 -63 179.5C-63 181.433 -61.4331 183 -59.5 183Z" fill="#C0D3FB"/>
<path d="M-56 195.5C-56 197.433 -57.5669 199 -59.5 199C-61.4331 199 -63 197.433 -63 195.5C-63 193.567 -61.4331 192 -59.5 192C-57.5669 192 -56 193.567 -56 195.5Z" fill="#C0D3FB"/>
<path d="M-42.5 119C-40.5669 119 -39 117.433 -39 115.5C-39 113.567 -40.5669 112 -42.5 112C-44.4331 112 -46 113.567 -46 115.5C-46 117.433 -44.4331 119 -42.5 119Z" fill="#C0D3FB"/>
<path d="M-39 131.5C-39 133.433 -40.5669 135 -42.5 135C-44.4331 135 -46 133.433 -46 131.5C-46 129.567 -44.4331 128 -42.5 128C-40.5669 128 -39 129.567 -39 131.5Z" fill="#C0D3FB"/>
<path d="M-42.5 151C-40.5669 151 -39 149.433 -39 147.5C-39 145.567 -40.5669 144 -42.5 144C-44.4331 144 -46 145.567 -46 147.5C-46 149.433 -44.4331 151 -42.5 151Z" fill="#C0D3FB"/>
<path d="M-39 163.5C-39 165.433 -40.5669 167 -42.5 167C-44.4331 167 -46 165.433 -46 163.5C-46 161.567 -44.4331 160 -42.5 160C-40.5669 160 -39 161.567 -39 163.5Z" fill="#C0D3FB"/>
<path d="M-42.5 183C-40.5669 183 -39 181.433 -39 179.5C-39 177.567 -40.5669 176 -42.5 176C-44.4331 176 -46 177.567 -46 179.5C-46 181.433 -44.4331 183 -42.5 183Z" fill="#C0D3FB"/>
<path d="M-39 195.5C-39 197.433 -40.5669 199 -42.5 199C-44.4331 199 -46 197.433 -46 195.5C-46 193.567 -44.4331 192 -42.5 192C-40.5669 192 -39 193.567 -39 195.5Z" fill="#C0D3FB"/>
<path d="M-25.5 119C-23.5669 119 -22 117.433 -22 115.5C-22 113.567 -23.5669 112 -25.5 112C-27.4331 112 -29 113.567 -29 115.5C-29 117.433 -27.4331 119 -25.5 119Z" fill="#C0D3FB"/>
<path d="M-22 131.5C-22 133.433 -23.5669 135 -25.5 135C-27.4331 135 -29 133.433 -29 131.5C-29 129.567 -27.4331 128 -25.5 128C-23.5669 128 -22 129.567 -22 131.5Z" fill="#C0D3FB"/>
<path d="M-25.5 151C-23.5669 151 -22 149.433 -22 147.5C-22 145.567 -23.5669 144 -25.5 144C-27.4331 144 -29 145.567 -29 147.5C-29 149.433 -27.4331 151 -25.5 151Z" fill="#C0D3FB"/>
<path d="M-22 163.5C-22 165.433 -23.5669 167 -25.5 167C-27.4331 167 -29 165.433 -29 163.5C-29 161.567 -27.4331 160 -25.5 160C-23.5669 160 -22 161.567 -22 163.5Z" fill="#C0D3FB"/>
<path d="M-25.5 183C-23.5669 183 -22 181.433 -22 179.5C-22 177.567 -23.5669 176 -25.5 176C-27.4331 176 -29 177.567 -29 179.5C-29 181.433 -27.4331 183 -25.5 183Z" fill="#C0D3FB"/>
<path d="M-22 195.5C-22 197.433 -23.5669 199 -25.5 199C-27.4331 199 -29 197.433 -29 195.5C-29 193.567 -27.4331 192 -25.5 192C-23.5669 192 -22 193.567 -22 195.5Z" fill="#C0D3FB"/>
<path d="M-8.5 119C-6.56689 119 -5 117.433 -5 115.5C-5 113.567 -6.56689 112 -8.5 112C-10.4331 112 -12 113.567 -12 115.5C-12 117.433 -10.4331 119 -8.5 119Z" fill="#C0D3FB"/>
<path d="M-5 131.5C-5 133.433 -6.56689 135 -8.5 135C-10.4331 135 -12 133.433 -12 131.5C-12 129.567 -10.4331 128 -8.5 128C-6.56689 128 -5 129.567 -5 131.5Z" fill="#C0D3FB"/>
<path d="M-8.5 151C-6.56689 151 -5 149.433 -5 147.5C-5 145.567 -6.56689 144 -8.5 144C-10.4331 144 -12 145.567 -12 147.5C-12 149.433 -10.4331 151 -8.5 151Z" fill="#C0D3FB"/>
<path d="M-5 163.5C-5 165.433 -6.56689 167 -8.5 167C-10.4331 167 -12 165.433 -12 163.5C-12 161.567 -10.4331 160 -8.5 160C-6.56689 160 -5 161.567 -5 163.5Z" fill="#C0D3FB"/>
<path d="M-8.5 183C-6.56689 183 -5 181.433 -5 179.5C-5 177.567 -6.56689 176 -8.5 176C-10.4331 176 -12 177.567 -12 179.5C-12 181.433 -10.4331 183 -8.5 183Z" fill="#C0D3FB"/>
<path d="M-5 195.5C-5 197.433 -6.56689 199 -8.5 199C-10.4331 199 -12 197.433 -12 195.5C-12 193.567 -10.4331 192 -8.5 192C-6.56689 192 -5 193.567 -5 195.5Z" fill="#C0D3FB"/>
<path d="M-59.5 215C-57.5669 215 -56 213.433 -56 211.5C-56 209.567 -57.5669 208 -59.5 208C-61.4331 208 -63 209.567 -63 211.5C-63 213.433 -61.4331 215 -59.5 215Z" fill="#C0D3FB"/>
<path d="M-39 211.5C-39 213.433 -40.5669 215 -42.5 215C-44.4331 215 -46 213.433 -46 211.5C-46 209.567 -44.4331 208 -42.5 208C-40.5669 208 -39 209.567 -39 211.5Z" fill="#C0D3FB"/>
<path d="M-25.5 215C-23.5669 215 -22 213.433 -22 211.5C-22 209.567 -23.5669 208 -25.5 208C-27.4331 208 -29 209.567 -29 211.5C-29 213.433 -27.4331 215 -25.5 215Z" fill="#C0D3FB"/>
<path d="M-5 211.5C-5 213.433 -6.56689 215 -8.5 215C-10.4331 215 -12 213.433 -12 211.5C-12 209.567 -10.4331 208 -8.5 208C-6.56689 208 -5 209.567 -5 211.5Z" fill="#C0D3FB"/>
<path d="M12 115.5C12 117.433 10.4331 119 8.5 119C6.56689 119 5 117.433 5 115.5C5 113.567 6.56689 112 8.5 112C10.4331 112 12 113.567 12 115.5Z" fill="#C0D3FB"/>
<path d="M8.5 135C10.4331 135 12 133.433 12 131.5C12 129.567 10.4331 128 8.5 128C6.56689 128 5 129.567 5 131.5C5 133.433 6.56689 135 8.5 135Z" fill="#C0D3FB"/>
<path d="M12 147.5C12 149.433 10.4331 151 8.5 151C6.56689 151 5 149.433 5 147.5C5 145.567 6.56689 144 8.5 144C10.4331 144 12 145.567 12 147.5Z" fill="#C0D3FB"/>
<path d="M8.5 167C10.4331 167 12 165.433 12 163.5C12 161.567 10.4331 160 8.5 160C6.56689 160 5 161.567 5 163.5C5 165.433 6.56689 167 8.5 167Z" fill="#C0D3FB"/>
<path d="M12 179.5C12 181.433 10.4331 183 8.5 183C6.56689 183 5 181.433 5 179.5C5 177.567 6.56689 176 8.5 176C10.4331 176 12 177.567 12 179.5Z" fill="#C0D3FB"/>
<path d="M8.5 199C10.4331 199 12 197.433 12 195.5C12 193.567 10.4331 192 8.5 192C6.56689 192 5 193.567 5 195.5C5 197.433 6.56689 199 8.5 199Z" fill="#C0D3FB"/>
<path d="M29 115.5C29 117.433 27.4331 119 25.5 119C23.5669 119 22 117.433 22 115.5C22 113.567 23.5669 112 25.5 112C27.4331 112 29 113.567 29 115.5Z" fill="#C0D3FB"/>
<path d="M25.5 135C27.4331 135 29 133.433 29 131.5C29 129.567 27.4331 128 25.5 128C23.5669 128 22 129.567 22 131.5C22 133.433 23.5669 135 25.5 135Z" fill="#C0D3FB"/>
<path d="M29 147.5C29 149.433 27.4331 151 25.5 151C23.5669 151 22 149.433 22 147.5C22 145.567 23.5669 144 25.5 144C27.4331 144 29 145.567 29 147.5Z" fill="#C0D3FB"/>
<path d="M25.5 167C27.4331 167 29 165.433 29 163.5C29 161.567 27.4331 160 25.5 160C23.5669 160 22 161.567 22 163.5C22 165.433 23.5669 167 25.5 167Z" fill="#C0D3FB"/>
<path d="M29 179.5C29 181.433 27.4331 183 25.5 183C23.5669 183 22 181.433 22 179.5C22 177.567 23.5669 176 25.5 176C27.4331 176 29 177.567 29 179.5Z" fill="#C0D3FB"/>
<path d="M25.5 199C27.4331 199 29 197.433 29 195.5C29 193.567 27.4331 192 25.5 192C23.5669 192 22 193.567 22 195.5C22 197.433 23.5669 199 25.5 199Z" fill="#C0D3FB"/>
<path d="M46 115.5C46 117.433 44.4331 119 42.5 119C40.5669 119 39 117.433 39 115.5C39 113.567 40.5669 112 42.5 112C44.4331 112 46 113.567 46 115.5Z" fill="#C0D3FB"/>
<path d="M42.5 135C44.4331 135 46 133.433 46 131.5C46 129.567 44.4331 128 42.5 128C40.5669 128 39 129.567 39 131.5C39 133.433 40.5669 135 42.5 135Z" fill="#C0D3FB"/>
<path d="M46 147.5C46 149.433 44.4331 151 42.5 151C40.5669 151 39 149.433 39 147.5C39 145.567 40.5669 144 42.5 144C44.4331 144 46 145.567 46 147.5Z" fill="#C0D3FB"/>
<path d="M42.5 167C44.4331 167 46 165.433 46 163.5C46 161.567 44.4331 160 42.5 160C40.5669 160 39 161.567 39 163.5C39 165.433 40.5669 167 42.5 167Z" fill="#C0D3FB"/>
<path d="M46 179.5C46 181.433 44.4331 183 42.5 183C40.5669 183 39 181.433 39 179.5C39 177.567 40.5669 176 42.5 176C44.4331 176 46 177.567 46 179.5Z" fill="#C0D3FB"/>
<path d="M42.5 199C44.4331 199 46 197.433 46 195.5C46 193.567 44.4331 192 42.5 192C40.5669 192 39 193.567 39 195.5C39 197.433 40.5669 199 42.5 199Z" fill="#C0D3FB"/>
<path d="M63 115.5C63 117.433 61.4331 119 59.5 119C57.5669 119 56 117.433 56 115.5C56 113.567 57.5669 112 59.5 112C61.4331 112 63 113.567 63 115.5Z" fill="#C0D3FB"/>
<path d="M59.5 135C61.4331 135 63 133.433 63 131.5C63 129.567 61.4331 128 59.5 128C57.5669 128 56 129.567 56 131.5C56 133.433 57.5669 135 59.5 135Z" fill="#C0D3FB"/>
<path d="M63 147.5C63 149.433 61.4331 151 59.5 151C57.5669 151 56 149.433 56 147.5C56 145.567 57.5669 144 59.5 144C61.4331 144 63 145.567 63 147.5Z" fill="#C0D3FB"/>
<path d="M59.5 167C61.4331 167 63 165.433 63 163.5C63 161.567 61.4331 160 59.5 160C57.5669 160 56 161.567 56 163.5C56 165.433 57.5669 167 59.5 167Z" fill="#C0D3FB"/>
<path d="M63 179.5C63 181.433 61.4331 183 59.5 183C57.5669 183 56 181.433 56 179.5C56 177.567 57.5669 176 59.5 176C61.4331 176 63 177.567 63 179.5Z" fill="#C0D3FB"/>
<path d="M59.5 199C61.4331 199 63 197.433 63 195.5C63 193.567 61.4331 192 59.5 192C57.5669 192 56 193.567 56 195.5C56 197.433 57.5669 199 59.5 199Z" fill="#C0D3FB"/>
<path d="M8.5 215C10.4331 215 12 213.433 12 211.5C12 209.567 10.4331 208 8.5 208C6.56689 208 5 209.567 5 211.5C5 213.433 6.56689 215 8.5 215Z" fill="#C0D3FB"/>
<path d="M29 211.5C29 213.433 27.4331 215 25.5 215C23.5669 215 22 213.433 22 211.5C22 209.567 23.5669 208 25.5 208C27.4331 208 29 209.567 29 211.5Z" fill="#C0D3FB"/>
<path d="M42.5 215C44.4331 215 46 213.433 46 211.5C46 209.567 44.4331 208 42.5 208C40.5669 208 39 209.567 39 211.5C39 213.433 40.5669 215 42.5 215Z" fill="#C0D3FB"/>
<path d="M63 211.5C63 213.433 61.4331 215 59.5 215C57.5669 215 56 213.433 56 211.5C56 209.567 57.5669 208 59.5 208C61.4331 208 63 209.567 63 211.5Z" fill="#C0D3FB"/>
<path d="M-56 227.5C-56 229.433 -57.5669 231 -59.5 231C-61.4331 231 -63 229.433 -63 227.5C-63 225.567 -61.4331 224 -59.5 224C-57.5669 224 -56 225.567 -56 227.5Z" fill="#C0D3FB"/>
<path d="M-56 243.5C-56 245.433 -57.5669 247 -59.5 247C-61.4331 247 -63 245.433 -63 243.5C-63 241.567 -61.4331 240 -59.5 240C-57.5669 240 -56 241.567 -56 243.5Z" fill="#C0D3FB"/>
<path d="M-59.5 263C-57.5669 263 -56 261.433 -56 259.5C-56 257.567 -57.5669 256 -59.5 256C-61.4331 256 -63 257.567 -63 259.5C-63 261.433 -61.4331 263 -59.5 263Z" fill="#C0D3FB"/>
<path d="M-56 275.5C-56 277.433 -57.5669 279 -59.5 279C-61.4331 279 -63 277.433 -63 275.5C-63 273.567 -61.4331 272 -59.5 272C-57.5669 272 -56 273.567 -56 275.5Z" fill="#C0D3FB"/>
<path d="M-59.5 295C-57.5669 295 -56 293.433 -56 291.5C-56 289.567 -57.5669 288 -59.5 288C-61.4331 288 -63 289.567 -63 291.5C-63 293.433 -61.4331 295 -59.5 295Z" fill="#C0D3FB"/>
<path d="M-56 307.5C-56 309.433 -57.5669 311 -59.5 311C-61.4331 311 -63 309.433 -63 307.5C-63 305.567 -61.4331 304 -59.5 304C-57.5669 304 -56 305.567 -56 307.5Z" fill="#C0D3FB"/>
<path d="M-42.5 231C-40.5669 231 -39 229.433 -39 227.5C-39 225.567 -40.5669 224 -42.5 224C-44.4331 224 -46 225.567 -46 227.5C-46 229.433 -44.4331 231 -42.5 231Z" fill="#C0D3FB"/>
<path d="M-39 243.5C-39 245.433 -40.5669 247 -42.5 247C-44.4331 247 -46 245.433 -46 243.5C-46 241.567 -44.4331 240 -42.5 240C-40.5669 240 -39 241.567 -39 243.5Z" fill="#C0D3FB"/>
<path d="M-42.5 263C-40.5669 263 -39 261.433 -39 259.5C-39 257.567 -40.5669 256 -42.5 256C-44.4331 256 -46 257.567 -46 259.5C-46 261.433 -44.4331 263 -42.5 263Z" fill="#C0D3FB"/>
<path d="M-39 275.5C-39 277.433 -40.5669 279 -42.5 279C-44.4331 279 -46 277.433 -46 275.5C-46 273.567 -44.4331 272 -42.5 272C-40.5669 272 -39 273.567 -39 275.5Z" fill="#C0D3FB"/>
<path d="M-42.5 295C-40.5669 295 -39 293.433 -39 291.5C-39 289.567 -40.5669 288 -42.5 288C-44.4331 288 -46 289.567 -46 291.5C-46 293.433 -44.4331 295 -42.5 295Z" fill="#C0D3FB"/>
<path d="M-39 307.5C-39 309.433 -40.5669 311 -42.5 311C-44.4331 311 -46 309.433 -46 307.5C-46 305.567 -44.4331 304 -42.5 304C-40.5669 304 -39 305.567 -39 307.5Z" fill="#C0D3FB"/>
<path d="M-25.5 231C-23.5669 231 -22 229.433 -22 227.5C-22 225.567 -23.5669 224 -25.5 224C-27.4331 224 -29 225.567 -29 227.5C-29 229.433 -27.4331 231 -25.5 231Z" fill="#C0D3FB"/>
<path d="M-22 243.5C-22 245.433 -23.5669 247 -25.5 247C-27.4331 247 -29 245.433 -29 243.5C-29 241.567 -27.4331 240 -25.5 240C-23.5669 240 -22 241.567 -22 243.5Z" fill="#C0D3FB"/>
<path d="M-25.5 263C-23.5669 263 -22 261.433 -22 259.5C-22 257.567 -23.5669 256 -25.5 256C-27.4331 256 -29 257.567 -29 259.5C-29 261.433 -27.4331 263 -25.5 263Z" fill="#C0D3FB"/>
<path d="M-22 275.5C-22 277.433 -23.5669 279 -25.5 279C-27.4331 279 -29 277.433 -29 275.5C-29 273.567 -27.4331 272 -25.5 272C-23.5669 272 -22 273.567 -22 275.5Z" fill="#C0D3FB"/>
<path d="M-25.5 295C-23.5669 295 -22 293.433 -22 291.5C-22 289.567 -23.5669 288 -25.5 288C-27.4331 288 -29 289.567 -29 291.5C-29 293.433 -27.4331 295 -25.5 295Z" fill="#C0D3FB"/>
<path d="M-22 307.5C-22 309.433 -23.5669 311 -25.5 311C-27.4331 311 -29 309.433 -29 307.5C-29 305.567 -27.4331 304 -25.5 304C-23.5669 304 -22 305.567 -22 307.5Z" fill="#C0D3FB"/>
<path d="M-8.5 231C-6.56689 231 -5 229.433 -5 227.5C-5 225.567 -6.56689 224 -8.5 224C-10.4331 224 -12 225.567 -12 227.5C-12 229.433 -10.4331 231 -8.5 231Z" fill="#C0D3FB"/>
<path d="M-5 243.5C-5 245.433 -6.56689 247 -8.5 247C-10.4331 247 -12 245.433 -12 243.5C-12 241.567 -10.4331 240 -8.5 240C-6.56689 240 -5 241.567 -5 243.5Z" fill="#C0D3FB"/>
<path d="M-8.5 263C-6.56689 263 -5 261.433 -5 259.5C-5 257.567 -6.56689 256 -8.5 256C-10.4331 256 -12 257.567 -12 259.5C-12 261.433 -10.4331 263 -8.5 263Z" fill="#C0D3FB"/>
<path d="M-5 275.5C-5 277.433 -6.56689 279 -8.5 279C-10.4331 279 -12 277.433 -12 275.5C-12 273.567 -10.4331 272 -8.5 272C-6.56689 272 -5 273.567 -5 275.5Z" fill="#C0D3FB"/>
<path d="M-8.5 295C-6.56689 295 -5 293.433 -5 291.5C-5 289.567 -6.56689 288 -8.5 288C-10.4331 288 -12 289.567 -12 291.5C-12 293.433 -10.4331 295 -8.5 295Z" fill="#C0D3FB"/>
<path d="M-5 307.5C-5 309.433 -6.56689 311 -8.5 311C-10.4331 311 -12 309.433 -12 307.5C-12 305.567 -10.4331 304 -8.5 304C-6.56689 304 -5 305.567 -5 307.5Z" fill="#C0D3FB"/>
<path d="M-59.5 327C-57.5669 327 -56 325.433 -56 323.5C-56 321.567 -57.5669 320 -59.5 320C-61.4331 320 -63 321.567 -63 323.5C-63 325.433 -61.4331 327 -59.5 327Z" fill="#C0D3FB"/>
<path d="M-39 323.5C-39 325.433 -40.5669 327 -42.5 327C-44.4331 327 -46 325.433 -46 323.5C-46 321.567 -44.4331 320 -42.5 320C-40.5669 320 -39 321.567 -39 323.5Z" fill="#C0D3FB"/>
<path d="M-25.5 327C-23.5669 327 -22 325.433 -22 323.5C-22 321.567 -23.5669 320 -25.5 320C-27.4331 320 -29 321.567 -29 323.5C-29 325.433 -27.4331 327 -25.5 327Z" fill="#C0D3FB"/>
<path d="M-5 323.5C-5 325.433 -6.56689 327 -8.5 327C-10.4331 327 -12 325.433 -12 323.5C-12 321.567 -10.4331 320 -8.5 320C-6.56689 320 -5 321.567 -5 323.5Z" fill="#C0D3FB"/>
<path d="M12 227.5C12 229.433 10.4331 231 8.5 231C6.56689 231 5 229.433 5 227.5C5 225.567 6.56689 224 8.5 224C10.4331 224 12 225.567 12 227.5Z" fill="#C0D3FB"/>
<path d="M8.5 247C10.4331 247 12 245.433 12 243.5C12 241.567 10.4331 240 8.5 240C6.56689 240 5 241.567 5 243.5C5 245.433 6.56689 247 8.5 247Z" fill="#C0D3FB"/>
<path d="M12 259.5C12 261.433 10.4331 263 8.5 263C6.56689 263 5 261.433 5 259.5C5 257.567 6.56689 256 8.5 256C10.4331 256 12 257.567 12 259.5Z" fill="#C0D3FB"/>
<path d="M8.5 279C10.4331 279 12 277.433 12 275.5C12 273.567 10.4331 272 8.5 272C6.56689 272 5 273.567 5 275.5C5 277.433 6.56689 279 8.5 279Z" fill="#C0D3FB"/>
<path d="M12 291.5C12 293.433 10.4331 295 8.5 295C6.56689 295 5 293.433 5 291.5C5 289.567 6.56689 288 8.5 288C10.4331 288 12 289.567 12 291.5Z" fill="#C0D3FB"/>
<path d="M8.5 311C10.4331 311 12 309.433 12 307.5C12 305.567 10.4331 304 8.5 304C6.56689 304 5 305.567 5 307.5C5 309.433 6.56689 311 8.5 311Z" fill="#C0D3FB"/>
<path d="M29 227.5C29 229.433 27.4331 231 25.5 231C23.5669 231 22 229.433 22 227.5C22 225.567 23.5669 224 25.5 224C27.4331 224 29 225.567 29 227.5Z" fill="#C0D3FB"/>
<path d="M25.5 247C27.4331 247 29 245.433 29 243.5C29 241.567 27.4331 240 25.5 240C23.5669 240 22 241.567 22 243.5C22 245.433 23.5669 247 25.5 247Z" fill="#C0D3FB"/>
<path d="M29 259.5C29 261.433 27.4331 263 25.5 263C23.5669 263 22 261.433 22 259.5C22 257.567 23.5669 256 25.5 256C27.4331 256 29 257.567 29 259.5Z" fill="#C0D3FB"/>
<path d="M25.5 279C27.4331 279 29 277.433 29 275.5C29 273.567 27.4331 272 25.5 272C23.5669 272 22 273.567 22 275.5C22 277.433 23.5669 279 25.5 279Z" fill="#C0D3FB"/>
<path d="M29 291.5C29 293.433 27.4331 295 25.5 295C23.5669 295 22 293.433 22 291.5C22 289.567 23.5669 288 25.5 288C27.4331 288 29 289.567 29 291.5Z" fill="#C0D3FB"/>
<path d="M25.5 311C27.4331 311 29 309.433 29 307.5C29 305.567 27.4331 304 25.5 304C23.5669 304 22 305.567 22 307.5C22 309.433 23.5669 311 25.5 311Z" fill="#C0D3FB"/>
<path d="M46 227.5C46 229.433 44.4331 231 42.5 231C40.5669 231 39 229.433 39 227.5C39 225.567 40.5669 224 42.5 224C44.4331 224 46 225.567 46 227.5Z" fill="#C0D3FB"/>
<path d="M42.5 247C44.4331 247 46 245.433 46 243.5C46 241.567 44.4331 240 42.5 240C40.5669 240 39 241.567 39 243.5C39 245.433 40.5669 247 42.5 247Z" fill="#C0D3FB"/>
<path d="M46 259.5C46 261.433 44.4331 263 42.5 263C40.5669 263 39 261.433 39 259.5C39 257.567 40.5669 256 42.5 256C44.4331 256 46 257.567 46 259.5Z" fill="#C0D3FB"/>
<path d="M42.5 279C44.4331 279 46 277.433 46 275.5C46 273.567 44.4331 272 42.5 272C40.5669 272 39 273.567 39 275.5C39 277.433 40.5669 279 42.5 279Z" fill="#C0D3FB"/>
<path d="M46 291.5C46 293.433 44.4331 295 42.5 295C40.5669 295 39 293.433 39 291.5C39 289.567 40.5669 288 42.5 288C44.4331 288 46 289.567 46 291.5Z" fill="#C0D3FB"/>
<path d="M42.5 311C44.4331 311 46 309.433 46 307.5C46 305.567 44.4331 304 42.5 304C40.5669 304 39 305.567 39 307.5C39 309.433 40.5669 311 42.5 311Z" fill="#C0D3FB"/>
<path d="M63 227.5C63 229.433 61.4331 231 59.5 231C57.5669 231 56 229.433 56 227.5C56 225.567 57.5669 224 59.5 224C61.4331 224 63 225.567 63 227.5Z" fill="#C0D3FB"/>
<path d="M59.5 247C61.4331 247 63 245.433 63 243.5C63 241.567 61.4331 240 59.5 240C57.5669 240 56 241.567 56 243.5C56 245.433 57.5669 247 59.5 247Z" fill="#C0D3FB"/>
<path d="M63 259.5C63 261.433 61.4331 263 59.5 263C57.5669 263 56 261.433 56 259.5C56 257.567 57.5669 256 59.5 256C61.4331 256 63 257.567 63 259.5Z" fill="#C0D3FB"/>
<path d="M59.5 279C61.4331 279 63 277.433 63 275.5C63 273.567 61.4331 272 59.5 272C57.5669 272 56 273.567 56 275.5C56 277.433 57.5669 279 59.5 279Z" fill="#C0D3FB"/>
<path d="M63 291.5C63 293.433 61.4331 295 59.5 295C57.5669 295 56 293.433 56 291.5C56 289.567 57.5669 288 59.5 288C61.4331 288 63 289.567 63 291.5Z" fill="#C0D3FB"/>
<path d="M59.5 311C61.4331 311 63 309.433 63 307.5C63 305.567 61.4331 304 59.5 304C57.5669 304 56 305.567 56 307.5C56 309.433 57.5669 311 59.5 311Z" fill="#C0D3FB"/>
<path d="M8.5 327C10.4331 327 12 325.433 12 323.5C12 321.567 10.4331 320 8.5 320C6.56689 320 5 321.567 5 323.5C5 325.433 6.56689 327 8.5 327Z" fill="#C0D3FB"/>
<path d="M29 323.5C29 325.433 27.4331 327 25.5 327C23.5669 327 22 325.433 22 323.5C22 321.567 23.5669 320 25.5 320C27.4331 320 29 321.567 29 323.5Z" fill="#C0D3FB"/>
<path d="M42.5 327C44.4331 327 46 325.433 46 323.5C46 321.567 44.4331 320 42.5 320C40.5669 320 39 321.567 39 323.5C39 325.433 40.5669 327 42.5 327Z" fill="#C0D3FB"/>
<path d="M63 323.5C63 325.433 61.4331 327 59.5 327C57.5669 327 56 325.433 56 323.5C56 321.567 57.5669 320 59.5 320C61.4331 320 63 321.567 63 323.5Z" fill="#C0D3FB"/>
</g>
</svg>
