<svg width="189" height="110" viewBox="0 0 189 110" fill="none" xmlns="http://www.w3.org/2000/svg">
<g clip-path="url(#clip0_131_256)">
<g opacity="0.1">
<path d="M138.959 108.377C140.976 108.377 142.612 106.232 142.612 103.586C142.612 100.94 140.976 98.795 138.959 98.795C136.942 98.795 135.306 100.94 135.306 103.586C135.306 106.232 136.942 108.377 138.959 108.377Z" fill="#3F3D56"/>
<path d="M141.849 83.0887C142.361 82.1986 142.626 81.1876 142.618 80.1603C142.618 77.5086 140.983 75.369 138.965 75.369C136.948 75.369 135.314 77.5136 135.314 80.1603C135.304 81.187 135.567 82.1979 136.077 83.0887C135.577 83.9832 135.314 84.9912 135.314 86.0164C135.314 87.0415 135.577 88.0495 136.077 88.944C135.577 89.8387 135.314 90.847 135.314 91.8724C135.314 92.8978 135.577 93.9061 136.077 94.8009C135.567 95.6917 135.304 96.7026 135.314 97.7293C135.314 100.381 136.95 102.521 138.965 102.521C140.981 102.521 142.618 100.376 142.618 97.7293C142.628 96.7026 142.365 95.6917 141.856 94.8009C142.355 93.9061 142.618 92.8978 142.618 91.8724C142.618 90.847 142.355 89.8387 141.856 88.944C142.355 88.0495 142.618 87.0415 142.618 86.0164C142.618 84.9912 142.355 83.9832 141.856 83.0887H141.849Z" fill="#3F3D56"/>
<path d="M138.959 79.0963C140.976 79.0963 142.612 76.9512 142.612 74.305C142.612 71.6589 140.976 69.5138 138.959 69.5138C136.942 69.5138 135.306 71.6589 135.306 74.305C135.306 76.9512 136.942 79.0963 138.959 79.0963Z" fill="#3F3D56"/>
<path d="M138.959 73.2394C140.976 73.2394 142.612 71.0943 142.612 68.4481C142.612 65.802 140.976 63.6569 138.959 63.6569C136.942 63.6569 135.306 65.802 135.306 68.4481C135.306 71.0943 136.942 73.2394 138.959 73.2394Z" fill="#3F3D56"/>
<path d="M152.63 28.3713C153.129 27.7343 153.583 27.0638 153.989 26.3643L144.399 24.7849L154.778 24.8628C155.773 22.6915 156.315 20.3397 156.372 17.9512C156.429 15.5627 155.999 13.1876 155.109 10.9713L141.183 18.2071L154.027 8.75053C152.824 6.66845 151.205 4.85698 149.273 3.42889C147.34 2.0008 145.136 0.986647 142.795 0.449568C140.455 -0.0875104 138.029 -0.136022 135.669 0.307054C133.309 0.75013 131.066 1.67531 129.078 3.025C127.09 4.37469 125.401 6.12001 124.116 8.1523C122.83 10.1846 121.975 12.4604 121.605 14.838C121.235 17.2155 121.357 19.6441 121.964 21.9723C122.571 24.3006 123.649 26.4788 125.132 28.3713C124.355 29.3622 123.686 30.434 123.138 31.5682L135.594 38.0549L122.312 33.5802C121.378 36.3422 121.146 39.2943 121.636 42.169C122.127 45.0438 123.326 47.7504 125.124 50.0438C123.094 52.6299 121.831 55.7363 121.48 59.0077C121.129 62.2791 121.703 65.5835 123.138 68.5431C124.572 71.5027 126.808 73.9981 129.591 75.744C132.373 77.4899 135.59 78.4157 138.873 78.4157C142.156 78.4157 145.372 77.4899 148.155 75.744C150.937 73.9981 153.173 71.5027 154.608 68.5431C156.042 65.5835 156.616 62.2791 156.265 59.0077C155.914 55.7363 154.651 52.6299 152.622 50.0438C155.047 46.9536 156.366 43.136 156.366 39.2043C156.366 35.2725 155.047 31.4549 152.622 28.3647L152.63 28.3713Z" fill="#6C63FF"/>
<path opacity="0.1" d="M121.388 39.2117C121.382 43.1442 122.701 46.9634 125.132 50.0505C123.102 52.6366 121.84 55.7429 121.489 59.0143C121.137 62.2857 121.712 65.5901 123.146 68.5497C124.58 71.5094 126.817 74.0048 129.599 75.7506C132.382 77.4965 135.598 78.4224 138.881 78.4224C142.164 78.4224 145.38 77.4965 148.163 75.7506C150.946 74.0048 153.182 71.5094 154.616 68.5497C156.05 65.5901 156.625 62.2857 156.274 59.0143C155.922 55.7429 154.66 52.6366 152.63 50.0505C154.975 47.0673 121.388 37.2429 121.388 39.2117Z" fill="black"/>
</g>
<g opacity="0.1">
<path d="M36.5119 103.253C37.7393 103.253 38.7343 101.947 38.7343 100.336C38.7343 98.7253 37.7393 97.4194 36.5119 97.4194C35.2845 97.4194 34.2896 98.7253 34.2896 100.336C34.2896 101.947 35.2845 103.253 36.5119 103.253Z" fill="#3F3D56"/>
<path d="M38.2795 87.8584C38.5898 87.316 38.7502 86.7004 38.7442 86.0752C38.7442 84.4643 37.7521 83.1583 36.5202 83.1583C35.2883 83.1583 34.2978 84.4643 34.2978 86.0752C34.2913 86.7003 34.4512 87.3158 34.7608 87.8584C34.4573 88.4033 34.2979 89.0169 34.2979 89.6409C34.2979 90.2649 34.4573 90.8785 34.7608 91.4233C34.4573 91.9681 34.2979 92.5817 34.2979 93.2057C34.2979 93.8297 34.4573 94.4433 34.7608 94.9881C34.4509 95.5301 34.2911 96.1451 34.2978 96.7697C34.2978 98.3823 35.2899 99.6882 36.5202 99.6882C37.7504 99.6882 38.7442 98.3823 38.7442 96.7697C38.7504 96.145 38.59 95.5299 38.2795 94.9881C38.584 94.4436 38.7439 93.8299 38.7439 93.2057C38.7439 92.5815 38.584 91.9678 38.2795 91.4233C38.584 90.8788 38.7439 90.265 38.7439 89.6409C38.7439 89.0167 38.584 88.4029 38.2795 87.8584Z" fill="#3F3D56"/>
<path d="M36.5119 85.4272C37.7393 85.4272 38.7343 84.1213 38.7343 82.5104C38.7343 80.8994 37.7393 79.5935 36.5119 79.5935C35.2845 79.5935 34.2896 80.8994 34.2896 82.5104C34.2896 84.1213 35.2845 85.4272 36.5119 85.4272Z" fill="#3F3D56"/>
<path d="M36.5119 81.8623C37.7393 81.8623 38.7343 80.5564 38.7343 78.9455C38.7343 77.3345 37.7393 76.0286 36.5119 76.0286C35.2845 76.0286 34.2896 77.3345 34.2896 78.9455C34.2896 80.5564 35.2845 81.8623 36.5119 81.8623Z" fill="#3F3D56"/>
<path d="M28.193 54.5467C27.8894 54.1593 27.6132 53.7511 27.3662 53.3253L33.2081 52.364L26.89 52.4121C26.2851 51.091 25.9551 49.6601 25.9201 48.207C25.8852 46.7538 26.1459 45.3087 26.6866 43.9599L35.1577 48.3699L27.3414 42.6025C28.0745 41.3359 29.0598 40.234 30.2361 39.3654C31.4123 38.4968 32.7543 37.8801 34.1786 37.5536C35.6028 37.2272 37.0789 37.198 38.5149 37.4678C39.9509 37.7377 41.3161 38.3008 42.5257 39.1222C43.7352 39.9435 44.7632 41.0056 45.5456 42.2422C46.328 43.4789 46.8482 44.8637 47.0737 46.3105C47.2993 47.7573 47.2253 49.2351 46.8566 50.652C46.4878 52.069 45.832 53.3947 44.9301 54.5467C45.4032 55.1491 45.8102 55.8009 46.1438 56.4907L38.5607 60.4417L46.6465 57.7221C47.2144 59.4041 47.3548 61.2015 47.0551 62.9517C46.7554 64.7018 46.0251 66.3494 44.9301 67.7454C46.1655 69.3198 46.934 71.2108 47.1476 73.2022C47.3613 75.1936 47.0116 77.2051 46.1385 79.0067C45.2653 80.8084 43.904 82.3274 42.2102 83.3901C40.5163 84.4529 38.5583 85.0165 36.5599 85.0165C34.5615 85.0165 32.6035 84.4529 30.9096 83.3901C29.2157 82.3274 27.8544 80.8084 26.9813 79.0067C26.1081 77.2051 25.7584 75.1936 25.9721 73.2022C26.1858 71.2108 26.9543 69.3198 28.1896 67.7454C26.7134 65.8639 25.9109 63.5397 25.9109 61.1461C25.9109 58.7524 26.7134 56.4283 28.1896 54.5467H28.193Z" fill="#6C63FF"/>
<path opacity="0.1" d="M47.2088 61.146C47.2123 63.5402 46.4094 65.8655 44.9302 67.7454C46.1656 69.3197 46.934 71.2107 47.1477 73.2022C47.3614 75.1936 47.0117 77.2051 46.1386 79.0067C45.2654 80.8083 43.9041 82.3273 42.2102 83.3901C40.5164 84.4528 38.5583 85.0164 36.56 85.0164C34.5616 85.0164 32.6035 84.4528 30.9097 83.3901C29.2158 82.3273 27.8545 80.8083 26.9814 79.0067C26.1082 77.2051 25.7585 75.1936 25.9722 73.2022C26.1859 71.2107 26.9543 69.3197 28.1897 67.7454C26.7627 65.9373 47.2088 59.9478 47.2088 61.146Z" fill="black"/>
</g>
<g opacity="0.1">
<path d="M86.6141 105.792C88.257 105.792 89.5889 104.045 89.5889 101.889C89.5889 99.7336 88.257 97.9862 86.6141 97.9862C84.9712 97.9862 83.6394 99.7336 83.6394 101.889C83.6394 104.045 84.9712 105.792 86.6141 105.792Z" fill="#3F3D56"/>
<path d="M88.9689 85.1902C89.3835 84.4641 89.5975 83.6403 89.589 82.8037C89.589 80.6492 88.2662 78.9008 86.6126 78.9008C84.9591 78.9008 83.6362 80.6492 83.6362 82.8037C83.6275 83.6405 83.8422 84.4645 84.258 85.1902C83.8504 85.919 83.6364 86.7404 83.6364 87.5759C83.6364 88.4114 83.8504 89.2328 84.258 89.9616C83.8504 90.6901 83.6363 91.5112 83.6363 92.3464C83.6363 93.1816 83.8504 94.0028 84.258 94.7313C83.8422 95.457 83.6275 96.281 83.6362 97.1178C83.6362 99.2723 84.969 101.021 86.6126 101.021C88.2562 101.021 89.589 99.2723 89.589 97.1178C89.5975 96.2812 89.3835 95.4575 88.9689 94.7313C89.3756 94.0025 89.5891 93.1814 89.5891 92.3464C89.5891 91.5114 89.3756 90.6904 88.9689 89.9616C89.3756 89.2325 89.5891 88.4112 89.5891 87.5759C89.5891 86.7406 89.3756 85.9193 88.9689 85.1902Z" fill="#3F3D56"/>
<path d="M86.6141 81.9369C88.257 81.9369 89.5889 80.1895 89.5889 78.034C89.5889 75.8785 88.257 74.131 86.6141 74.131C84.9712 74.131 83.6394 75.8785 83.6394 78.034C83.6394 80.1895 84.9712 81.9369 86.6141 81.9369Z" fill="#3F3D56"/>
<path d="M86.6141 77.1656C88.257 77.1656 89.5889 75.4182 89.5889 73.2626C89.5889 71.1071 88.257 69.3597 86.6141 69.3597C84.9712 69.3597 83.6394 71.1071 83.6394 73.2626C83.6394 75.4182 84.9712 77.1656 86.6141 77.1656Z" fill="#3F3D56"/>
<path d="M75.4842 40.6138C75.0776 40.0955 74.7074 39.5494 74.3763 38.9797L82.1927 37.6936L73.7397 37.7566C72.9287 35.9879 72.4861 34.0719 72.4392 32.1259C72.3923 30.1799 72.742 28.2448 73.4669 26.4389L84.8102 32.3356L74.3482 24.6291C75.3257 22.9267 76.6429 21.4446 78.2176 20.2754C79.7924 19.1062 81.5908 18.2751 83.5004 17.834C85.4101 17.3929 87.39 17.3513 89.3165 17.7118C91.2429 18.0722 93.0745 18.8271 94.6968 19.929C96.319 21.031 97.6971 22.4565 98.7449 24.1163C99.7926 25.7762 100.488 27.6349 100.786 29.5761C101.085 31.5173 100.981 33.4994 100.481 35.3986C99.9809 37.2978 99.0954 39.0731 97.8798 40.6138C98.5128 41.4213 99.0572 42.2948 99.5036 43.2191L89.3575 48.5025L100.177 44.8565C100.937 47.1072 101.125 49.5125 100.724 51.8544C100.323 54.1963 99.3451 56.4011 97.8798 58.269C99.533 60.3758 100.561 62.9063 100.847 65.5712C101.133 68.2361 100.665 70.9279 99.4968 73.3388C98.3283 75.7497 96.5066 77.7825 94.2399 79.2046C91.9732 80.6268 89.3529 81.381 86.6787 81.381C84.0045 81.381 81.3843 80.6268 79.1175 79.2046C76.8508 77.7825 75.0291 75.7497 73.8607 73.3388C72.6922 70.9279 72.2242 68.2361 72.5102 65.5712C72.7961 62.9063 73.8244 60.3758 75.4776 58.269C73.5024 55.7511 72.4286 52.6411 72.4286 49.4381C72.4286 46.2351 73.5024 43.1251 75.4776 40.6072L75.4842 40.6138Z" fill="#6C63FF"/>
<path opacity="0.1" d="M100.929 49.4455C100.934 52.6491 99.8595 55.7605 97.8798 58.2756C99.533 60.3824 100.561 62.9129 100.847 65.5778C101.133 68.2428 100.665 70.9345 99.4968 73.3454C98.3283 75.7564 96.5066 77.7891 94.2399 79.2112C91.9732 80.6334 89.3529 81.3876 86.6787 81.3876C84.0045 81.3876 81.3843 80.6334 79.1175 79.2112C76.8508 77.7891 75.0291 75.7564 73.8607 73.3454C72.6922 70.9345 72.2242 68.2428 72.5102 65.5778C72.7961 62.9129 73.8244 60.3824 75.4776 58.2756C73.5678 55.846 100.929 47.8413 100.929 49.4455Z" fill="black"/>
</g>
<path d="M189 105.441C189 106.579 180.696 107.62 166.966 108.424C164.47 108.568 161.794 108.706 158.957 108.835C156.505 108.945 153.935 109.05 151.248 109.148C148.644 109.241 145.941 109.327 143.137 109.407C134.284 109.66 124.497 109.843 114.099 109.934C111.576 109.957 109.019 109.975 106.429 109.987C103.73 109.999 101.001 110.004 98.2402 110.003C48.1147 110.003 7.48218 107.963 7.48218 105.446C7.48218 102.928 48.1147 100.888 98.2402 100.888C119.821 100.888 139.638 101.268 155.215 101.897L156.918 101.967H156.928C176.549 102.801 189 104.055 189 105.441Z" fill="#3F3D56"/>
<path opacity="0.15" d="M189 105.441C189 106.579 180.696 107.62 166.966 108.424C164.47 108.568 161.794 108.706 158.957 108.835C156.505 108.945 153.935 109.05 151.248 109.148C148.644 109.241 145.941 109.327 143.137 109.407C134.284 109.66 124.497 109.843 114.099 109.934C111.576 109.957 109.019 109.975 106.429 109.987C103.73 109.999 101.001 110.004 98.2402 110.003C48.1147 110.003 7.48218 107.963 7.48218 105.446C7.48218 102.928 48.1147 100.888 98.2402 100.888C119.821 100.888 139.638 101.268 155.215 101.897L156.918 101.967H156.928C176.549 102.801 189 104.055 189 105.441Z" fill="black"/>
<path d="M181.518 104.639C181.518 105.59 173.214 106.462 159.484 107.125C156.989 107.246 154.312 107.36 151.476 107.468C149.023 107.56 146.454 107.648 143.767 107.73C141.164 107.807 138.46 107.879 135.657 107.947C126.802 108.159 117.015 108.311 106.617 108.387C104.096 108.406 101.539 108.421 98.9464 108.431C96.2478 108.441 93.5189 108.445 90.7597 108.445C40.6342 108.445 0 106.74 0 104.634C0 102.527 40.6342 100.822 90.7597 100.822C112.338 100.822 132.156 101.138 147.733 101.665L149.436 101.723H149.447C169.075 102.431 181.518 103.474 181.518 104.639Z" fill="#3F3D56"/>
<path d="M23.4407 70.0127L21.1621 63.0205L75.729 62.4222L77.9646 69.3448L23.4407 70.0127Z" fill="#3F3D56"/>
<path opacity="0.15" d="M23.4407 70.0127L21.1621 63.0205L75.729 62.4222L77.9646 69.3448L23.4407 70.0127Z" fill="black"/>
<path d="M19.8028 70.0127L17.5242 63.0205L72.0911 62.4222L74.3267 69.3448L19.8028 70.0127Z" fill="#3F3D56"/>
<path d="M112.955 59.2684C107.313 59.2684 102.867 57.0238 99.616 52.5347C96.3652 48.0457 94.7397 42.6075 94.7397 36.2203C94.7397 29.79 96.3117 24.3628 99.4556 19.939C102.6 15.5151 107.034 13.3053 112.76 13.3098C118.832 13.3098 123.407 15.6405 126.484 20.3019C129.562 24.9633 131.102 30.3584 131.103 36.4871C131.103 42.5716 129.51 47.8904 126.324 52.4436C123.138 56.9967 118.682 59.2717 112.955 59.2684ZM113.121 54.2186C116.832 54.2186 119.606 52.5972 121.443 49.3544C123.279 46.1116 124.198 42.0236 124.198 37.0904C124.198 31.5992 123.258 27.1029 121.378 23.6016C119.499 20.1003 116.616 18.3491 112.73 18.348C105.344 18.348 101.652 24.2281 101.652 35.9883C101.652 48.1429 105.473 54.2197 113.117 54.2186H113.121ZM114.979 102.577H106.819L160.242 14.2097H168.248L114.979 102.577ZM162.241 103.483C156.514 103.483 152.049 101.218 148.847 96.6885C145.645 92.1586 144.037 86.7199 144.024 80.3724C144.024 73.9852 145.585 68.5796 148.706 64.1557C151.828 59.7319 156.274 57.5221 162.044 57.5265C168.073 57.5265 172.616 59.8573 175.672 64.5187C178.729 69.1801 180.258 74.5746 180.259 80.7022C180.259 86.747 178.677 92.0558 175.512 96.6289C172.347 101.202 167.922 103.487 162.237 103.483H162.241ZM162.337 98.3044C166.031 98.3044 168.79 96.7106 170.614 93.5231C172.439 90.3356 173.351 86.2641 173.351 81.3088C173.351 76.0054 172.428 71.5578 170.581 67.9659C168.735 64.3739 165.858 62.5752 161.951 62.5697C154.522 62.5697 150.808 68.4498 150.808 80.21C150.806 92.274 154.648 98.3055 162.333 98.3044H162.337Z" fill="#3F3D56"/>
<path d="M112.955 59.2684C107.313 59.2684 102.867 57.0238 99.616 52.5347C96.3652 48.0457 94.7397 42.6075 94.7397 36.2203C94.7397 29.79 96.3117 24.3628 99.4556 19.939C102.6 15.5151 107.034 13.3053 112.76 13.3098C118.832 13.3098 123.407 15.6405 126.484 20.3019C129.562 24.9633 131.102 30.3584 131.103 36.4871C131.103 42.5716 129.51 47.8904 126.324 52.4436C123.138 56.9967 118.682 59.2717 112.955 59.2684ZM113.121 54.2186C116.832 54.2186 119.606 52.5972 121.443 49.3544C123.279 46.1116 124.198 42.0236 124.198 37.0904C124.198 31.5992 123.258 27.1029 121.378 23.6016C119.499 20.1003 116.616 18.3491 112.73 18.348C105.344 18.348 101.652 24.2281 101.652 35.9883C101.652 48.1429 105.473 54.2197 113.117 54.2186H113.121ZM114.979 102.577H106.819L160.242 14.2097H168.248L114.979 102.577ZM162.241 103.483C156.514 103.483 152.049 101.218 148.847 96.6885C145.645 92.1586 144.037 86.7199 144.024 80.3724C144.024 73.9852 145.585 68.5796 148.706 64.1557C151.828 59.7319 156.274 57.5221 162.044 57.5265C168.073 57.5265 172.616 59.8573 175.672 64.5187C178.729 69.1801 180.258 74.5746 180.259 80.7022C180.259 86.747 178.677 92.0558 175.512 96.6289C172.347 101.202 167.922 103.487 162.237 103.483H162.241ZM162.337 98.3044C166.031 98.3044 168.79 96.7106 170.614 93.5231C172.439 90.3356 173.351 86.2641 173.351 81.3088C173.351 76.0054 172.428 71.5578 170.581 67.9659C168.735 64.3739 165.858 62.5752 161.951 62.5697C154.522 62.5697 150.808 68.4498 150.808 80.21C150.806 92.274 154.648 98.3055 162.333 98.3044H162.337Z" fill="#3F3D56"/>
<path opacity="0.15" d="M112.955 59.2684C107.313 59.2684 102.867 57.0238 99.616 52.5347C96.3652 48.0457 94.7397 42.6075 94.7397 36.2203C94.7397 29.79 96.3117 24.3628 99.4556 19.939C102.6 15.5151 107.034 13.3053 112.76 13.3098C118.832 13.3098 123.407 15.6405 126.484 20.3019C129.562 24.9633 131.102 30.3584 131.103 36.4871C131.103 42.5716 129.51 47.8904 126.324 52.4436C123.138 56.9967 118.682 59.2717 112.955 59.2684ZM113.121 54.2186C116.832 54.2186 119.606 52.5972 121.443 49.3544C123.279 46.1116 124.198 42.0236 124.198 37.0904C124.198 31.5992 123.258 27.1029 121.378 23.6016C119.499 20.1003 116.616 18.3491 112.73 18.348C105.344 18.348 101.652 24.2281 101.652 35.9883C101.652 48.1429 105.473 54.2197 113.117 54.2186H113.121ZM114.979 102.577H106.819L160.242 14.2097H168.248L114.979 102.577ZM162.241 103.483C156.514 103.483 152.049 101.218 148.847 96.6885C145.645 92.1586 144.037 86.7199 144.024 80.3724C144.024 73.9852 145.585 68.5796 148.706 64.1557C151.828 59.7319 156.274 57.5221 162.044 57.5265C168.073 57.5265 172.616 59.8573 175.672 64.5187C178.729 69.1801 180.258 74.5746 180.259 80.7022C180.259 86.747 178.677 92.0558 175.512 96.6289C172.347 101.202 167.922 103.487 162.237 103.483H162.241ZM162.337 98.3044C166.031 98.3044 168.79 96.7106 170.614 93.5231C172.439 90.3356 173.351 86.2641 173.351 81.3088C173.351 76.0054 172.428 71.5578 170.581 67.9659C168.735 64.3739 165.858 62.5752 161.951 62.5697C154.522 62.5697 150.808 68.4498 150.808 80.21C150.806 92.274 154.648 98.3055 162.333 98.3044H162.337Z" fill="black"/>
<path d="M107.829 59.2684C102.187 59.2684 97.7409 57.0238 94.4901 52.5347C91.2392 48.0457 89.6138 42.6075 89.6138 36.2203C89.6138 29.79 91.1857 24.3628 94.3297 19.939C97.4736 15.5151 101.908 13.3053 107.634 13.3098C113.706 13.3098 118.281 15.6405 121.358 20.3019C124.436 24.9633 125.976 30.3584 125.977 36.4871C125.977 42.5716 124.384 47.8904 121.198 52.4436C118.012 56.9967 113.556 59.2717 107.829 59.2684ZM107.995 54.2186C111.706 54.2186 114.48 52.5972 116.317 49.3544C118.153 46.1116 119.072 42.0236 119.072 37.0904C119.072 31.5992 118.132 27.1029 116.252 23.6016C114.373 20.1003 111.49 18.3491 107.604 18.348C100.218 18.348 96.5256 24.2281 96.5256 35.9883C96.5256 48.1429 100.347 54.2197 107.991 54.2186H107.995ZM109.853 102.577H101.693L155.116 14.2097H163.122L109.853 102.577ZM157.115 103.483C151.388 103.483 146.923 101.218 143.721 96.6885C140.519 92.1586 138.911 86.7199 138.898 80.3724C138.898 73.9852 140.459 68.5796 143.58 64.1557C146.702 59.7319 151.148 57.5221 156.918 57.5265C162.947 57.5265 167.49 59.8573 170.546 64.5187C173.603 69.1801 175.132 74.5746 175.133 80.7022C175.133 86.747 173.551 92.0558 170.386 96.6289C167.221 101.202 162.796 103.487 157.111 103.483H157.115ZM157.211 98.3044C160.905 98.3044 163.664 96.7106 165.488 93.5231C167.313 90.3356 168.225 86.2641 168.225 81.3088C168.225 76.0054 167.302 71.5578 165.455 67.9659C163.609 64.3739 160.731 62.5752 156.822 62.5697C149.393 62.5697 145.679 68.4498 145.679 80.21C145.679 92.274 149.522 98.3055 157.207 98.3044H157.211Z" fill="#3F3D56"/>
<path d="M125.681 104.794C126.362 103.528 125.588 101.977 124.699 100.847C123.809 99.7164 122.724 98.5431 122.747 97.1029C122.781 95.0362 124.97 93.8148 126.716 92.7176C128.015 91.9045 129.212 90.9399 130.284 89.8439C130.733 89.4217 131.104 88.9235 131.381 88.3722C131.743 87.5634 131.731 86.6436 131.711 85.7586C131.635 82.8064 131.49 79.8586 131.275 76.9153" stroke="#3F3D56" stroke-width="4" stroke-miterlimit="10"/>
<path d="M134.602 76.7529C134.577 76.2129 134.417 75.6878 134.136 75.2261C133.856 74.7645 133.464 74.381 132.996 74.1112L132.275 75.5397L132.297 73.8095C131.953 73.7088 131.595 73.6657 131.237 73.6819C130.601 73.7118 129.989 73.9299 129.476 74.3087C128.964 74.6875 128.576 75.21 128.36 75.8101C128.144 76.4101 128.111 77.0609 128.264 77.6799C128.418 78.299 128.75 78.8587 129.221 79.2881C129.692 79.7176 130.279 79.9975 130.908 80.0926C131.537 80.1876 132.18 80.0935 132.756 79.8222C133.332 79.5508 133.815 79.1144 134.144 78.568C134.472 78.0217 134.631 77.39 134.602 76.7529Z" fill="#6C63FF"/>
<path d="M128.864 98.5862C128.526 99.2437 127.973 99.7649 127.298 100.062C126.622 100.36 125.865 100.415 125.154 100.22C124.442 100.024 123.819 99.5895 123.39 98.9883C122.96 98.3872 122.75 97.6562 122.794 96.9181C122.838 96.1799 123.134 95.4794 123.632 94.9341C124.131 94.3887 124.801 94.0317 125.531 93.9228C126.26 93.8139 127.005 93.9598 127.641 94.336C128.276 94.7123 128.763 95.296 129.019 95.9892L127.009 97.6283L129.224 97.1112C129.223 97.6246 129.1 98.1304 128.864 98.5862Z" fill="#6C63FF"/>
<path d="M127.275 92.3199C126.853 92.3398 126.431 92.2761 126.033 92.1325C125.636 91.9889 125.27 91.7682 124.958 91.483C124.645 91.1978 124.392 90.8538 124.212 90.4704C124.032 90.0871 123.93 89.6721 123.91 89.249C123.885 88.7438 123.98 88.2399 124.188 87.7789C124.38 87.3481 124.664 86.9647 125.02 86.6558C125.376 86.3468 125.795 86.1198 126.248 85.9907L126.23 87.3166L126.959 85.8714C127.812 85.8314 128.645 86.1325 129.276 86.7084C129.907 87.2843 130.284 88.0879 130.324 88.9424C130.364 89.7968 130.064 90.6322 129.489 91.2647C128.914 91.8972 128.113 92.275 127.26 92.315L127.275 92.3199Z" fill="#6C63FF"/>
<path d="M135.086 87.111C134.659 87.1394 134.23 87.0822 133.826 86.9427C133.421 86.8031 133.048 86.584 132.729 86.2983C132.409 86.0125 132.15 85.6658 131.966 85.2784C131.782 84.891 131.677 84.4708 131.657 84.0422C131.637 83.6136 131.702 83.1853 131.849 82.7824C131.997 82.3795 132.222 82.01 132.514 81.6956C132.805 81.3812 133.156 81.1282 133.546 80.9514C133.936 80.7745 134.357 80.6774 134.785 80.6658C135.387 80.6364 135.984 80.7783 136.508 81.0751L135.939 82.6363L137.11 81.511C137.738 82.085 138.114 82.8856 138.153 83.7368C138.168 84.0353 138.14 84.3344 138.071 84.6251C137.911 85.3084 137.533 85.9208 136.994 86.3694C136.456 86.818 135.786 87.0784 135.086 87.111Z" fill="#6C63FF"/>
<path opacity="0.1" d="M134.168 77.6131C133.426 77.6943 132.705 77.9263 131.959 77.9727C131.214 78.0191 130.395 77.8401 129.924 77.2584C129.669 76.9468 129.543 76.5507 129.329 76.2093C129.126 75.8915 128.847 75.629 128.518 75.4453C128.312 75.8541 128.194 76.3023 128.174 76.7601C128.154 77.2179 128.232 77.6747 128.401 78.1002C128.571 78.5256 128.829 78.9099 129.159 79.2275C129.489 79.545 129.882 79.7885 130.313 79.9418C130.744 80.095 131.202 80.1545 131.658 80.1162C132.113 80.0779 132.556 79.9428 132.955 79.7198C133.354 79.4968 133.702 79.191 133.974 78.8229C134.246 78.4548 134.437 78.0327 134.534 77.5849C134.411 77.5915 134.291 77.5998 134.168 77.6131Z" fill="black"/>
<path opacity="0.1" d="M135.086 87.111C134.532 87.1364 133.98 87.0176 133.485 86.7664C132.99 86.5151 132.568 86.1399 132.26 85.677C131.952 85.2141 131.768 84.6793 131.727 84.1245C131.686 83.5697 131.789 83.0137 132.026 82.5104C132.28 82.6836 132.5 82.9041 132.672 83.16C132.902 83.5064 133.041 83.9075 133.31 84.2257C133.806 84.8173 134.668 85.0096 135.443 84.9748C136.219 84.94 136.97 84.7179 137.743 84.6433C137.851 84.6334 137.96 84.6267 138.074 84.6234C137.914 85.3076 137.536 85.9208 136.997 86.3698C136.457 86.8188 135.787 87.079 135.086 87.111Z" fill="black"/>
<path opacity="0.1" d="M127.275 92.3199C126.853 92.3398 126.431 92.2761 126.033 92.1325C125.636 91.9889 125.27 91.7682 124.958 91.483C124.645 91.1978 124.392 90.8538 124.212 90.4704C124.032 90.0871 123.93 89.6721 123.91 89.249C123.885 88.7438 123.98 88.2399 124.188 87.7789C124.453 87.9561 124.683 88.1808 124.867 88.4419C125.117 88.7949 125.274 89.2026 125.567 89.529C126.109 90.134 127.022 90.3477 127.844 90.3279C128.666 90.308 129.408 90.1157 130.2 90.0544C130.004 90.6875 129.618 91.2445 129.094 91.6499C128.571 92.0553 127.936 92.2892 127.275 92.3199Z" fill="black"/>
<path opacity="0.1" d="M128.864 98.5861C128.49 99.3237 127.847 99.8887 127.068 100.164C126.29 100.44 125.435 100.405 124.682 100.067C123.928 99.7292 123.333 99.1137 123.019 98.3482C122.706 97.5826 122.698 96.7256 122.997 95.9543C123.262 96.1291 123.5 96.3418 123.703 96.5858C124.009 96.9603 124.211 97.3846 124.565 97.7326C125.226 98.379 126.284 98.6458 127.23 98.6707C127.776 98.6751 128.322 98.6469 128.864 98.5861Z" fill="black"/>
<path d="M175.453 104.629C176.134 103.363 175.36 101.811 174.47 100.681C173.581 99.5507 172.496 98.3773 172.519 96.9371C172.552 94.8705 174.742 93.6491 176.488 92.5519C177.786 91.7388 178.984 90.7742 180.056 89.6782C180.505 89.256 180.876 88.7578 181.152 88.2065C181.514 87.3977 181.503 86.4779 181.483 85.5929C181.407 82.6407 181.261 79.6929 181.046 76.7496" stroke="#3F3D56" stroke-width="4" stroke-miterlimit="10"/>
<path d="M184.373 76.5872C184.349 76.0472 184.189 75.5221 183.908 75.0604C183.627 74.5988 183.235 74.2153 182.768 73.9454L182.047 75.374L182.068 73.6438C181.725 73.5431 181.366 73.5 181.009 73.5162C180.373 73.5461 179.76 73.7642 179.248 74.143C178.736 74.5218 178.348 75.0443 178.132 75.6444C177.916 76.2444 177.883 76.8951 178.036 77.5142C178.189 78.1333 178.522 78.693 178.993 79.1224C179.463 79.5518 180.05 79.8318 180.68 79.9269C181.309 80.0219 181.952 79.9278 182.528 79.6565C183.104 79.3851 183.587 78.9487 183.915 78.4023C184.244 77.856 184.403 77.2243 184.373 76.5872Z" fill="#6C63FF"/>
<path d="M178.636 98.4204C178.298 99.0779 177.745 99.5991 177.07 99.8965C176.394 100.194 175.637 100.25 174.926 100.054C174.214 99.8585 173.591 99.4237 173.161 98.8225C172.732 98.2214 172.521 97.4905 172.566 96.7523C172.61 96.0141 172.906 95.3137 173.404 94.7683C173.902 94.2229 174.573 93.8659 175.302 93.757C176.032 93.6481 176.777 93.794 177.412 94.1703C178.047 94.5465 178.534 95.1302 178.791 95.8234L176.78 97.4625L178.996 96.9454C178.995 97.4589 178.872 97.9647 178.636 98.4204Z" fill="#6C63FF"/>
<path d="M177.047 92.1542C176.624 92.174 176.203 92.1103 175.805 91.9667C175.407 91.8231 175.042 91.6024 174.729 91.3172C174.417 91.0321 174.164 90.688 173.984 90.3047C173.804 89.9214 173.701 89.5063 173.682 89.0832C173.657 88.578 173.752 88.0742 173.959 87.6132C174.152 87.1823 174.436 86.799 174.792 86.49C175.148 86.1811 175.567 85.954 176.02 85.8249L176.002 87.1508L176.731 85.7056H176.739C177.161 85.6858 177.583 85.7495 177.981 85.8931C178.378 86.0368 178.744 86.2574 179.056 86.5426C179.369 86.8278 179.622 87.1718 179.802 87.5551C179.982 87.9384 180.084 88.3535 180.104 88.7766C180.124 89.1997 180.06 89.6225 179.917 90.021C179.774 90.4195 179.553 90.7857 179.269 91.0989C178.984 91.4121 178.641 91.666 178.259 91.8462C177.876 92.0264 177.462 92.1294 177.04 92.1492L177.047 92.1542Z" fill="#6C63FF"/>
<path d="M184.858 86.9453C184.431 86.9737 184.002 86.9165 183.597 86.7769C183.193 86.6374 182.82 86.4183 182.5 86.1326C182.181 85.8468 181.922 85.5001 181.738 85.1127C181.554 84.7253 181.449 84.3051 181.429 83.8765C181.409 83.4479 181.474 83.0196 181.621 82.6167C181.768 82.2138 181.994 81.8443 182.285 81.5299C182.577 81.2155 182.928 80.9625 183.318 80.7857C183.708 80.6088 184.129 80.5117 184.557 80.5001C185.158 80.4707 185.756 80.6126 186.28 80.9094L185.711 82.4706L186.882 81.3453C187.51 81.9193 187.885 82.7199 187.925 83.571C187.94 83.8696 187.912 84.1687 187.842 84.4594C187.682 85.1427 187.304 85.7551 186.766 86.2037C186.227 86.6523 185.557 86.9127 184.858 86.9453Z" fill="#6C63FF"/>
<path opacity="0.1" d="M183.94 77.4473C183.198 77.5285 182.477 77.7605 181.731 77.8069C180.985 77.8533 180.167 77.6743 179.696 77.0926C179.441 76.7811 179.315 76.385 179.1 76.0436C178.897 75.7257 178.619 75.4633 178.29 75.2795C178.083 75.6883 177.966 76.1366 177.946 76.5943C177.926 77.0521 178.003 77.5089 178.173 77.9344C178.343 78.3599 178.601 78.7442 178.931 79.0617C179.26 79.3793 179.654 79.6228 180.085 79.776C180.515 79.9293 180.974 79.9887 181.429 79.9504C181.885 79.9122 182.327 79.777 182.727 79.554C183.126 79.331 183.473 79.0253 183.746 78.6571C184.018 78.289 184.209 77.867 184.306 77.4191C184.183 77.4258 184.063 77.434 183.94 77.4473Z" fill="black"/>
<path opacity="0.1" d="M184.858 86.9453C184.303 86.9706 183.752 86.8519 183.257 86.6006C182.761 86.3494 182.339 85.9741 182.031 85.5112C181.723 85.0484 181.54 84.5136 181.499 83.9588C181.458 83.4039 181.561 82.8479 181.797 82.3446C182.052 82.5178 182.272 82.7383 182.444 82.9943C182.674 83.3406 182.813 83.7417 183.082 84.0599C183.578 84.6516 184.44 84.8438 185.215 84.809C185.991 84.7742 186.741 84.5521 187.515 84.4775C187.623 84.4676 187.732 84.461 187.846 84.4577C187.686 85.1418 187.308 85.755 186.768 86.204C186.229 86.653 185.558 86.9133 184.858 86.9453Z" fill="black"/>
<path opacity="0.1" d="M177.047 92.1542C176.624 92.174 176.203 92.1103 175.805 91.9667C175.407 91.8231 175.042 91.6024 174.729 91.3172C174.417 91.0321 174.164 90.688 173.984 90.3047C173.804 89.9214 173.701 89.5063 173.682 89.0832C173.657 88.578 173.752 88.0742 173.959 87.6132C174.225 87.7903 174.455 88.0151 174.639 88.2761C174.889 88.6291 175.046 89.0368 175.339 89.3633C175.881 89.9682 176.794 90.182 177.615 90.1621C178.412 90.1455 179.18 89.95 179.972 89.8886C179.775 90.5217 179.389 91.0788 178.866 91.4841C178.343 91.8895 177.707 92.1234 177.047 92.1542Z" fill="black"/>
<path opacity="0.1" d="M178.635 98.4204C178.261 99.158 177.618 99.723 176.84 99.9987C176.061 100.274 175.207 100.24 174.453 99.9016C173.699 99.5635 173.104 98.948 172.791 98.1825C172.477 97.4169 172.469 96.5599 172.769 95.7886C173.034 95.9634 173.272 96.1761 173.475 96.4201C173.781 96.7946 173.982 97.2189 174.336 97.5669C174.998 98.2133 176.056 98.4801 177.002 98.505C177.548 98.5094 178.093 98.4812 178.635 98.4204Z" fill="black"/>
<path d="M18.1774 102.474C17.4962 101.208 18.27 99.6568 19.1596 98.5265C20.0492 97.3962 21.1339 96.2229 21.1108 94.7827C21.0777 92.716 18.8884 91.4946 17.1423 90.3975C15.8436 89.5843 14.6458 88.6197 13.5739 87.5237C13.1251 87.1015 12.754 86.6033 12.4776 86.052C12.1155 85.2432 12.1271 84.3234 12.1469 83.4384C12.223 80.4862 12.3685 77.5385 12.5835 74.5951" stroke="#3F3D56" stroke-width="4" stroke-miterlimit="10"/>
<path d="M9.25644 74.4327C9.28131 73.8927 9.44143 73.3676 9.72202 72.906C10.0026 72.4443 10.3947 72.0608 10.862 71.791L11.583 73.2196L11.5615 71.4893C11.9054 71.3886 12.2635 71.3455 12.6214 71.3617C13.2571 71.3916 13.8697 71.6097 14.3817 71.9885C14.8937 72.3673 15.2822 72.8898 15.4979 73.4899C15.7137 74.0899 15.7471 74.7407 15.5939 75.3597C15.4407 75.9788 15.1077 76.5385 14.6372 76.9679C14.1666 77.3974 13.5796 77.6773 12.9503 77.7724C12.321 77.8674 11.6777 77.7733 11.1018 77.502C10.5258 77.2306 10.0431 76.7942 9.71464 76.2479C9.38618 75.7015 9.22672 75.0699 9.25644 74.4327Z" fill="#6C63FF"/>
<path d="M14.9943 96.2659C15.3319 96.9234 15.8848 97.4446 16.5603 97.7421C17.2358 98.0395 17.9928 98.0951 18.7043 97.8995C19.4159 97.704 20.0387 97.2692 20.4684 96.6681C20.8981 96.0669 21.1084 95.336 21.0643 94.5978C21.0201 93.8597 20.724 93.1592 20.2257 92.6138C19.7274 92.0685 19.0572 91.7114 18.3275 91.6025C17.5977 91.4936 16.8528 91.6395 16.2176 92.0158C15.5824 92.392 15.0956 92.9757 14.8388 93.669L16.8495 95.308L14.6338 94.7909C14.6347 95.3044 14.7583 95.8102 14.9943 96.2659Z" fill="#6C63FF"/>
<path d="M16.5834 89.9997C17.0056 90.0195 17.4275 89.9558 17.825 89.8122C18.2226 89.6686 18.5881 89.4479 18.9005 89.1628C19.213 88.8776 19.4664 88.5335 19.6462 88.1502C19.826 87.7669 19.9286 87.3518 19.9484 86.9287C19.9734 86.4236 19.8782 85.9197 19.6706 85.4587C19.4784 85.0279 19.1943 84.6445 18.8383 84.3355C18.4824 84.0266 18.0632 83.7996 17.6103 83.6705L17.6285 84.9963L16.8992 83.5511C16.0467 83.5111 15.2132 83.8122 14.5822 84.3881C13.9511 84.9641 13.5742 85.7676 13.5343 86.6221C13.4944 87.4766 13.7948 88.3119 14.3694 88.9444C14.944 89.5769 15.7458 89.9547 16.5983 89.9947L16.5834 89.9997Z" fill="#6C63FF"/>
<path d="M8.77204 84.7908C9.19918 84.8193 9.62769 84.762 10.0325 84.6225C10.4373 84.4829 10.8103 84.2639 11.1296 83.9781C11.4489 83.6923 11.7082 83.3456 11.8922 82.9582C12.0762 82.5709 12.1813 82.1506 12.2013 81.722C12.2213 81.2934 12.1558 80.8651 12.0087 80.4622C11.8616 80.0593 11.6358 79.6898 11.3445 79.3754C11.0532 79.061 10.7023 78.808 10.3122 78.6312C9.92221 78.4544 9.50091 78.3573 9.07299 78.3456C8.47439 78.3178 7.88009 78.4597 7.35826 78.7549L7.92708 80.3161L6.7481 79.1958C6.12096 79.7686 5.74579 80.5671 5.70472 81.4166C5.69007 81.7151 5.71791 82.0142 5.7874 82.3049C5.94742 82.9882 6.32539 83.6006 6.864 84.0492C7.40261 84.4978 8.07248 84.7582 8.77204 84.7908Z" fill="#6C63FF"/>
<path opacity="0.1" d="M9.68965 75.2928C10.4321 75.374 11.153 75.606 11.8988 75.6524C12.6445 75.6988 13.463 75.5199 13.9343 74.9381C14.1889 74.6266 14.3146 74.2305 14.5296 73.8891C14.7326 73.5713 15.0109 73.3088 15.3398 73.1251C15.5464 73.5339 15.6636 73.9821 15.6838 74.4399C15.704 74.8976 15.6266 75.3545 15.4568 75.7799C15.287 76.2054 15.0287 76.5897 14.6991 76.9072C14.3695 77.2248 13.9761 77.4683 13.5453 77.6215C13.1144 77.7748 12.6559 77.8343 12.2003 77.796C11.7447 77.7577 11.3025 77.6225 10.9031 77.3995C10.5037 77.1765 10.1563 76.8708 9.88408 76.5027C9.61183 76.1345 9.42097 75.7125 9.32422 75.2646C9.44658 75.2713 9.56729 75.2796 9.68965 75.2928Z" fill="black"/>
<path opacity="0.1" d="M8.77213 84.7908C9.32663 84.8161 9.87825 84.6974 10.3735 84.4461C10.8687 84.1949 11.2908 83.8196 11.5987 83.3567C11.9067 82.8939 12.09 82.3591 12.1311 81.8043C12.1721 81.2495 12.0694 80.6934 11.8328 80.1901C11.5779 80.3633 11.3584 80.5838 11.1863 80.8398C10.9565 81.1862 10.8176 81.5872 10.548 81.9054C10.052 82.4971 9.19048 82.6893 8.41497 82.6545C7.63946 82.6197 6.88875 82.3976 6.11489 82.3231C6.00741 82.3131 5.89827 82.3065 5.78418 82.3032C5.94405 82.9874 6.32238 83.6005 6.86168 84.0495C7.40098 84.4985 8.07177 84.7588 8.77213 84.7908Z" fill="black"/>
<path opacity="0.1" d="M16.5833 89.9997C17.0055 90.0195 17.4274 89.9558 17.8249 89.8122C18.2225 89.6686 18.588 89.4479 18.9004 89.1628C19.2129 88.8776 19.4663 88.5335 19.6461 88.1502C19.8259 87.7669 19.9285 87.3518 19.9483 86.9287C19.9733 86.4235 19.8781 85.9197 19.6705 85.4587C19.4052 85.6358 19.1748 85.8606 18.9909 86.1216C18.7412 86.4746 18.5841 86.8823 18.2914 87.2088C17.7491 87.8137 16.8363 88.0275 16.0145 88.0076C15.2175 87.991 14.4503 87.7955 13.6582 87.7342C13.8545 88.3672 14.2406 88.9243 14.764 89.3296C15.2874 89.735 15.9226 89.969 16.5833 89.9997Z" fill="black"/>
<path opacity="0.1" d="M14.9944 96.2659C15.3688 97.0035 16.0118 97.5686 16.7903 97.8442C17.5688 98.1199 18.4232 98.0851 19.1768 97.7471C19.9304 97.409 20.5255 96.7935 20.8391 96.028C21.1526 95.2624 21.1605 94.4054 20.8612 93.6342C20.5962 93.8089 20.3584 94.0216 20.1551 94.2656C19.8492 94.6401 19.6475 95.0644 19.2936 95.4124C18.6322 96.0588 17.5739 96.3256 16.6281 96.3505C16.0823 96.3549 15.5368 96.3267 14.9944 96.2659Z" fill="black"/>
<path d="M111.366 86.9437C111.369 86.5419 111.278 86.1449 111.101 85.7846C110.923 85.4243 110.664 85.1106 110.344 84.8687C110.305 83.349 109.223 82.1076 107.832 81.9154C107.725 81.3991 107.484 80.9202 107.133 80.5268C106.783 80.1335 106.335 79.8396 105.835 79.6747C105.713 79.6361 105.589 79.6068 105.463 79.5869H105.427L105.362 79.5786H105.307H105.253H105.182H105.139H105.021C103.603 79.5786 102.422 80.6658 102.179 82.0994C101.261 81.8872 100.42 82.1623 100.269 82.7441C100.23 82.8982 100.239 83.0606 100.294 83.2098C100.449 83.6605 100.955 84.0914 101.642 84.3052L101.731 84.3317C101.776 84.345 101.82 84.355 101.865 84.3649H101.895C101.642 84.904 101.606 85.5197 101.795 86.0846C101.983 86.6494 102.38 87.1202 102.905 87.3994C102.884 87.4108 102.864 87.4235 102.845 87.4375C102.761 87.5155 102.693 87.6103 102.647 87.716C102.481 88.0076 102.352 88.3188 102.263 88.6424C102.197 88.9192 102.186 89.2092 102.098 89.4826C101.947 89.9798 101.561 90.4157 101.516 90.9444C101.496 91.1797 101.534 91.4565 101.367 91.6172C101.326 91.6531 101.281 91.6858 101.235 91.715C101.118 91.7953 101.019 91.8992 100.944 92.02C100.895 92.1199 100.83 92.2107 100.75 92.2885C100.6 92.4028 100.352 92.3912 100.277 92.5669C100.203 92.7425 100.395 92.9497 100.35 93.142C100.314 93.2978 100.143 93.369 100.019 93.4734C99.8808 93.6242 99.7838 93.8088 99.7384 94.0087C99.4913 94.0565 99.2369 94.049 98.993 93.9868C98.7492 93.9247 98.5221 93.8094 98.3279 93.6491C98.3945 93.8198 98.4433 93.997 98.4734 94.1778C98.2766 93.9673 97.9525 93.906 97.7128 93.7966C97.4035 93.6546 97.1275 93.4491 96.9025 93.1933L97.3358 93.1337L95.4176 90.2168L94.8521 90.1008L95.3598 91.077C95.3182 91.0969 95.2818 91.1261 95.2531 91.1623C95.2245 91.1985 95.2044 91.2407 95.1944 91.2858C95.1671 91.394 95.1604 91.5065 95.1746 91.6172C95.2014 91.8789 95.2451 92.1385 95.3052 92.3945L95.4524 93.0806C95.4648 93.145 95.4809 93.2086 95.5003 93.2712C95.3086 93.2643 95.1168 93.2861 94.9315 93.3359C94.5513 93.1949 94.1554 93.1009 93.7525 93.0558C93.6639 93.0402 93.5729 93.0447 93.4863 93.069C93.388 93.1145 93.3027 93.184 93.2383 93.2712C92.9075 93.6544 92.6141 94.0684 92.3619 94.5076C91.3317 96.3041 89.956 97.8719 88.6679 99.496C87.7783 99.859 86.8821 100.204 85.9842 100.545L84.0545 101.283C83.6692 101.43 83.2691 101.581 82.859 101.554C82.6738 101.543 82.4489 101.515 82.3447 101.672C82.294 101.75 82.2545 101.835 82.2273 101.924C82.1595 101.924 82.0917 101.941 82.0289 101.944H82.0173C81.895 101.639 81.7891 101.312 81.5543 101.09C81.5071 101.098 81.4624 101.117 81.4243 101.146C81.3862 101.174 81.3559 101.212 81.3361 101.256C81.2898 101.342 81.2617 101.437 81.2088 101.516C81.1046 101.669 80.9243 101.743 80.7954 101.873C80.6664 102.002 80.5854 102.204 80.4465 102.33C80.252 102.472 80.024 102.56 79.7851 102.587C79.4271 102.671 79.0818 102.803 78.7582 102.978C78.6389 103.052 78.5112 103.111 78.3779 103.154C78.2313 103.182 78.0812 103.187 77.9331 103.169L76.9112 103.094C76.8203 103.082 76.728 103.086 76.6384 103.106C76.5331 103.144 76.4435 103.217 76.3837 103.312C76.3239 103.407 76.2972 103.519 76.3077 103.631C76.3201 103.742 76.3551 103.849 76.4106 103.946C76.4661 104.043 76.5408 104.128 76.6301 104.195C76.8075 104.325 77.0038 104.427 77.2121 104.498C78.1001 104.842 79.0156 105.111 79.9488 105.302V105.509C80.5956 105.835 81.3096 106.006 82.0339 106.006C82.0872 106.01 82.1408 106 82.1893 105.978C82.2562 105.927 82.3027 105.854 82.3199 105.772C82.5368 105.122 82.6739 104.448 82.7284 103.765C82.8561 103.757 82.9811 103.725 83.0971 103.671C83.4493 103.575 83.7982 103.817 84.1603 103.856C84.6068 103.904 85.0218 103.644 85.4435 103.484C85.5047 103.46 85.5658 103.44 85.627 103.421C85.5067 103.577 85.3647 103.714 85.2054 103.83C85.0301 103.956 84.8333 104.049 84.6614 104.18C84.5184 104.31 84.3653 104.43 84.2033 104.536C84.0891 104.589 83.9715 104.635 83.8511 104.672C83.6766 104.736 83.5101 104.82 83.355 104.922C83.2161 105.004 83.0984 105.118 83.0111 105.254C82.9672 105.317 82.9402 105.391 82.9327 105.467C82.9252 105.544 82.9374 105.622 82.9682 105.693C82.9991 105.763 83.0474 105.825 83.1088 105.872C83.1701 105.918 83.2424 105.949 83.3187 105.96C83.4568 105.984 83.5978 105.988 83.737 105.971C84.2893 105.93 84.8399 105.878 85.3906 105.829C85.6237 105.813 85.8553 105.78 86.0834 105.729C86.2041 105.699 86.3232 105.66 86.4439 105.628C86.6498 105.574 86.8611 105.542 87.0739 105.534C87.1356 105.529 87.1978 105.535 87.2574 105.552C87.3864 105.593 87.4773 105.718 87.608 105.751C87.6928 105.759 87.7783 105.747 87.8577 105.716C88.2607 105.628 88.6721 105.584 89.0846 105.585C89.2648 105.575 89.4765 105.54 89.5608 105.373C89.6633 105.166 89.4913 104.934 89.4236 104.71C89.389 104.568 89.3702 104.422 89.3673 104.276C89.3359 103.915 89.2324 103.563 89.0631 103.243C88.9731 103.094 88.8972 102.936 88.8365 102.773C89.6267 102.471 90.3828 102.087 91.092 101.626C91.4988 101.372 91.9187 101.099 92.3784 101.006C92.9142 100.898 93.4665 101.041 93.9939 101.193C95.2504 101.557 96.4863 101.99 97.6962 102.487C98.275 102.724 98.8537 102.976 99.4457 103.15C99.6187 103.384 99.8281 103.589 100.066 103.757C100.463 104.014 100.947 104.088 101.413 104.125C102.043 104.183 102.676 104.206 103.308 104.196C103.791 104.188 104.289 104.155 104.72 103.934C104.826 103.88 104.925 103.814 105.016 103.739C105.347 103.798 105.686 103.621 105.946 103.394C106.289 103.101 106.537 102.711 106.657 102.275C106.809 101.677 106.692 100.979 107.059 100.49C107.156 100.36 107.283 100.253 107.379 100.121C107.497 99.9433 107.555 99.7324 107.545 99.5193L107.561 99.4944C107.644 99.3021 107.7 99.099 107.727 98.8911C107.77 98.7288 107.825 98.5698 107.892 98.4155C108.078 97.953 108.241 97.4812 108.378 97.0018C108.474 96.6838 108.549 96.36 108.603 96.0323C108.643 95.7704 108.666 95.5069 108.687 95.2434C108.714 94.8309 108.794 94.4237 108.925 94.0319C109.252 93.097 109.436 92.1182 109.473 91.1283C109.473 91.1085 109.473 91.0902 109.473 91.0703C109.953 91.0176 110.396 90.7872 110.716 90.4243C111.035 90.0614 111.208 89.5921 111.201 89.1081C111.201 88.8164 111.14 88.5278 111.022 88.2612C111.25 87.8599 111.369 87.4055 111.366 86.9437ZM102.015 98.331C102.043 98.4321 102.076 98.5332 102.11 98.6343C101.957 98.4834 101.807 98.3277 101.653 98.1785C101.714 98.1967 101.776 98.2166 101.835 98.2382C101.898 98.2633 101.959 98.2944 102.017 98.331H102.015ZM101.274 97.8338C100.372 97.0482 99.3266 96.4383 98.4023 95.6793C98.8984 95.9295 99.3944 96.2196 99.8905 96.498C100.468 96.8295 101.052 97.1466 101.643 97.4493C101.546 97.5967 101.423 97.7248 101.279 97.8271L101.274 97.8338ZM101.66 95.855L101.703 95.8102C101.703 95.9213 101.703 96.0257 101.703 96.1201C101.622 96.0936 101.537 96.0671 101.46 96.0373C101.531 95.9789 101.598 95.9158 101.661 95.8483L101.66 95.855ZM93.7112 97.9829C94.083 97.5615 94.4063 97.0995 94.6752 96.6057C95.0324 97.2338 95.6144 97.6863 96.1105 98.2116C95.3135 98.0989 94.5148 98.0111 93.7128 97.9763L93.7112 97.9829Z" fill="url(#paint0_linear_131_256)"/>
<path d="M95.001 90.3428L95.5714 90.4588L97.5144 93.3359L96.6562 93.4519L95.001 90.3428Z" fill="#2F2E41"/>
<path d="M81.1855 102.02C81.3394 102.53 81.5289 103.028 81.7527 103.512C82.3965 103.377 83.0298 103.196 83.6477 102.97C83.5281 102.783 83.3966 102.604 83.2541 102.434C83.1022 102.265 82.9206 102.125 82.7184 102.022C82.5216 101.936 82.2785 102 82.0685 102.012C81.7742 102.023 81.4799 102.026 81.1855 102.02Z" fill="#FBBEBE"/>
<path d="M82.7218 102.789C82.4011 102.688 82.2043 102.363 82.0737 102.05C81.943 101.737 81.8372 101.395 81.5892 101.165C81.542 101.172 81.4973 101.191 81.4592 101.22C81.4211 101.249 81.3908 101.287 81.3709 101.331C81.3229 101.414 81.2948 101.508 81.2403 101.588C81.1377 101.737 80.9559 101.81 80.8252 101.937C80.6946 102.065 80.6136 102.259 80.473 102.386C80.278 102.527 80.0503 102.615 79.8116 102.642C79.4512 102.723 79.1031 102.853 78.7765 103.026C78.6556 103.096 78.5268 103.152 78.3929 103.192C78.2452 103.22 78.094 103.225 77.9448 103.207L76.9146 103.132C76.823 103.121 76.7302 103.125 76.6401 103.145C76.5352 103.182 76.4455 103.253 76.3856 103.347C76.3256 103.44 76.2988 103.552 76.3094 103.662C76.3231 103.773 76.3595 103.879 76.4165 103.975C76.4734 104.071 76.5496 104.153 76.6401 104.218C76.8192 104.346 77.0165 104.447 77.2255 104.516C78.123 104.854 79.0465 105.119 79.9869 105.307V105.51C80.6404 105.835 81.3593 106.005 82.0885 106.008C82.1452 106.013 82.2021 106.003 82.2539 105.979C82.3209 105.93 82.3679 105.858 82.3862 105.777C82.6333 105.053 82.7775 104.298 82.8144 103.533C82.8334 103.34 82.8189 103.145 82.7715 102.956C82.7152 102.771 82.907 102.849 82.7285 102.776" fill="#2F2E41"/>
<path d="M102.472 98.8978C99.4178 99.0834 96.4017 98.1851 93.3426 98.089C92.963 98.0659 92.5819 98.0904 92.2083 98.1619C91.8188 98.2666 91.4418 98.4133 91.0839 98.5995C89.4452 99.3635 87.7487 99.9966 86.0538 100.63L84.1092 101.356C83.719 101.5 83.3172 101.647 82.9022 101.622C82.717 101.611 82.4904 101.583 82.3846 101.738C82.0688 102.207 82.2192 102.898 82.4276 103.426C82.4954 103.591 82.6095 103.782 82.7914 103.802C82.92 103.793 83.0461 103.761 83.1634 103.707C83.5173 103.613 83.8711 103.851 84.2349 103.89C84.6863 103.938 85.1047 103.681 85.5296 103.523C86.234 103.263 87.0046 103.271 87.7454 103.147C88.9889 102.94 90.1397 102.362 91.2178 101.702C91.6279 101.452 92.0446 101.183 92.5142 101.092C93.0549 100.986 93.6122 101.125 94.143 101.276C95.4084 101.635 96.6541 102.06 97.875 102.55C98.5105 102.827 99.1621 103.065 99.8262 103.263C101.274 103.645 102.805 103.556 104.198 103.008C104.694 102.814 105.217 102.473 105.245 101.944C105.261 101.642 105.028 101.377 104.873 101.115C104.772 100.95 104.673 100.784 104.564 100.626C104.038 99.8573 103.399 98.8414 102.472 98.8978Z" fill="#2F2E41"/>
<path opacity="0.1" d="M102.472 98.8978C99.4178 99.0834 96.4017 98.1851 93.3426 98.089C92.963 98.0659 92.5819 98.0904 92.2083 98.1619C91.8188 98.2666 91.4418 98.4133 91.0839 98.5995C89.4452 99.3635 87.7487 99.9966 86.0538 100.63L84.1092 101.356C83.719 101.5 83.3172 101.647 82.9022 101.622C82.717 101.611 82.4904 101.583 82.3846 101.738C82.0688 102.207 82.2192 102.898 82.4276 103.426C82.4954 103.591 82.6095 103.782 82.7914 103.802C82.92 103.793 83.0461 103.761 83.1634 103.707C83.5173 103.613 83.8711 103.851 84.2349 103.89C84.6863 103.938 85.1047 103.681 85.5296 103.523C86.234 103.263 87.0046 103.271 87.7454 103.147C88.9889 102.94 90.1397 102.362 91.2178 101.702C91.6279 101.452 92.0446 101.183 92.5142 101.092C93.0549 100.986 93.6122 101.125 94.143 101.276C95.4084 101.635 96.6541 102.06 97.875 102.55C98.5105 102.827 99.1621 103.065 99.8262 103.263C101.274 103.645 102.805 103.556 104.198 103.008C104.694 102.814 105.217 102.473 105.245 101.944C105.261 101.642 105.028 101.377 104.873 101.115C104.772 100.95 104.673 100.784 104.564 100.626C104.038 99.8573 103.399 98.8414 102.472 98.8978Z" fill="black"/>
<path d="M87.0474 102.169C87.5258 102.332 88.0075 102.482 88.4926 102.62C88.7654 102.171 89.2747 101.859 89.3904 101.347C89.397 101.325 89.397 101.301 89.3904 101.279C89.3778 101.258 89.3587 101.24 89.3359 101.23C88.9873 101.037 88.6005 100.924 88.2032 100.898C87.889 100.878 87.7468 101.206 87.6046 101.437C87.555 101.53 87.1747 102.212 87.0474 102.169Z" fill="#FBBEBE"/>
<path d="M87.7206 101.841C87.5778 101.817 87.4415 101.764 87.3205 101.684C87.1995 101.605 87.0964 101.501 87.0178 101.379C86.95 101.261 86.8789 101.102 86.7433 101.11C86.6077 101.119 86.5614 101.268 86.5333 101.392C86.4418 101.856 86.3095 102.312 86.1381 102.753C85.9653 103.195 85.6726 103.58 85.2932 103.865C85.1162 103.987 84.9195 104.08 84.7458 104.209C84.6011 104.339 84.4463 104.456 84.2828 104.561C84.1677 104.614 84.0489 104.658 83.9273 104.693C83.7492 104.756 83.5788 104.839 83.4197 104.94C83.2802 105.022 83.1619 105.136 83.0741 105.272C83.0318 105.341 83.0069 105.419 83.0018 105.5C82.9966 105.581 83.0112 105.662 83.0443 105.736C83.08 105.796 83.1279 105.848 83.1848 105.888C83.2418 105.928 83.3066 105.956 83.375 105.969C83.5144 105.993 83.6564 105.996 83.7967 105.979C84.3539 105.938 84.9095 105.888 85.4651 105.839C85.7003 105.824 85.9341 105.792 86.1646 105.742C86.2869 105.713 86.406 105.673 86.5267 105.641C86.7351 105.588 86.9485 105.557 87.1633 105.548C87.2256 105.544 87.2883 105.55 87.3485 105.567C87.4775 105.608 87.5684 105.732 87.7007 105.762C87.7859 105.771 87.872 105.76 87.9521 105.729C88.3587 105.643 88.7733 105.6 89.1889 105.6C89.3708 105.59 89.5858 105.555 89.6684 105.391C89.7726 105.187 89.6006 104.958 89.5312 104.74C89.4969 104.6 89.4775 104.456 89.4733 104.312C89.442 103.956 89.3379 103.61 89.1674 103.296C89.0252 103.034 88.8367 102.746 88.931 102.468C88.9816 102.381 89.0137 102.284 89.0252 102.184C89.0021 101.735 87.9719 101.901 87.7206 101.841Z" fill="#2F2E41"/>
<path d="M97.8931 93.9888C97.3521 93.7495 96.9186 93.3179 96.6761 92.7773C96.6265 92.6613 96.5835 92.5403 96.5355 92.4227C96.3746 92.0337 96.1255 91.6875 95.808 91.4117C95.774 91.3742 95.7323 91.3446 95.6858 91.3248C95.6392 91.3051 95.589 91.2957 95.5385 91.2974C95.4896 91.3119 95.4455 91.3393 95.4106 91.3765C95.3757 91.4138 95.3514 91.4597 95.34 91.5095C95.3117 91.6176 95.3044 91.7301 95.3185 91.841C95.3468 92.0981 95.391 92.3533 95.4508 92.605L95.5996 93.2811C95.6184 93.385 95.6495 93.4863 95.6922 93.5828C95.7559 93.6962 95.84 93.7968 95.9403 93.8794C96.0759 94.0054 96.2131 94.1264 96.352 94.244C96.4286 94.3135 96.5122 94.3746 96.6017 94.4263C96.7484 94.4961 96.9052 94.5419 97.0663 94.5622C97.6732 94.6749 98.2899 94.8373 98.8009 95.2252C98.8009 95.2252 98.8009 94.7727 98.7893 94.728C98.7831 94.5969 98.7382 94.4705 98.6603 94.365C98.4685 94.1579 98.1378 94.0965 97.8931 93.9888Z" fill="#FBBEBE"/>
<path opacity="0.1" d="M97.8931 93.9888C97.3521 93.7495 96.9186 93.3179 96.6761 92.7773C96.6265 92.6613 96.5835 92.5403 96.5355 92.4227C96.3746 92.0337 96.1255 91.6875 95.808 91.4117C95.774 91.3742 95.7323 91.3446 95.6858 91.3248C95.6392 91.3051 95.589 91.2957 95.5385 91.2974C95.4896 91.3119 95.4455 91.3393 95.4106 91.3765C95.3757 91.4138 95.3514 91.4597 95.34 91.5095C95.3117 91.6176 95.3044 91.7301 95.3185 91.841C95.3468 92.0981 95.391 92.3533 95.4508 92.605L95.5996 93.2811C95.6184 93.385 95.6495 93.4863 95.6922 93.5828C95.7559 93.6962 95.84 93.7968 95.9403 93.8794C96.0759 94.0054 96.2131 94.1264 96.352 94.244C96.4286 94.3135 96.5122 94.3746 96.6017 94.4263C96.7484 94.4961 96.9052 94.5419 97.0663 94.5622C97.6732 94.6749 98.2899 94.8373 98.8009 95.2252C98.8009 95.2252 98.8009 94.7727 98.7893 94.728C98.7831 94.5969 98.7382 94.4705 98.6603 94.365C98.4685 94.1579 98.1378 94.0965 97.8931 93.9888Z" fill="black"/>
<path d="M104.11 88.818C104.52 88.818 104.853 88.4826 104.853 88.0689C104.853 87.6552 104.52 87.3198 104.11 87.3198C103.7 87.3198 103.368 87.6552 103.368 88.0689C103.368 88.4826 103.7 88.818 104.11 88.818Z" fill="#2F2E41"/>
<path d="M103.651 87.6165C103.451 87.5709 103.242 87.6011 103.064 87.701C102.978 87.7771 102.91 87.871 102.864 87.9761C102.697 88.2623 102.567 88.5686 102.477 88.8876C102.41 89.1611 102.399 89.4461 102.311 89.7163C102.159 90.2135 101.769 90.6361 101.724 91.1548C101.704 91.3868 101.742 91.6603 101.574 91.8177C101.532 91.853 101.487 91.8846 101.44 91.9122C101.322 91.9912 101.223 92.094 101.147 92.2138C101.097 92.3215 101.027 92.4187 100.94 92.5006C100.788 92.6133 100.539 92.6017 100.464 92.7757C100.39 92.9497 100.582 93.1519 100.537 93.3408C100.501 93.4949 100.329 93.5662 100.206 93.6723C100.067 93.8202 99.9693 94.0027 99.9236 94.2009C99.6752 94.2478 99.4196 94.2402 99.1744 94.1787C98.9292 94.1172 98.7002 94.0032 98.5032 93.8446C98.7099 94.3567 98.7148 94.9219 98.7231 95.4737C98.7469 95.6503 98.7 95.8291 98.5925 95.9709C99.1844 95.9842 99.7599 96.1367 100.337 96.2742C100.584 96.3571 100.851 96.3571 101.098 96.2742C101.23 96.203 101.348 96.1087 101.446 95.9958C101.761 95.6759 102.09 95.3329 102.166 94.8871C102.186 94.6362 102.19 94.3844 102.179 94.133C102.209 93.8226 102.273 93.5165 102.369 93.2198C102.535 92.604 102.646 91.9744 102.7 91.3388C102.735 90.946 103.072 90.6311 103.25 90.2798C103.581 89.6169 103.928 88.9291 103.955 88.1866C103.978 87.9446 103.895 87.648 103.651 87.6165Z" fill="#2F2E41"/>
<path opacity="0.1" d="M103.651 87.6165C103.451 87.5709 103.242 87.6011 103.064 87.701C102.978 87.7771 102.91 87.871 102.864 87.9761C102.697 88.2623 102.567 88.5686 102.477 88.8876C102.41 89.1611 102.399 89.4461 102.311 89.7163C102.159 90.2135 101.769 90.6361 101.724 91.1548C101.704 91.3868 101.742 91.6603 101.574 91.8177C101.532 91.853 101.487 91.8846 101.44 91.9122C101.322 91.9912 101.223 92.094 101.147 92.2138C101.097 92.3215 101.027 92.4187 100.94 92.5006C100.788 92.6133 100.539 92.6017 100.464 92.7757C100.39 92.9497 100.582 93.1519 100.537 93.3408C100.501 93.4949 100.329 93.5662 100.206 93.6723C100.067 93.8202 99.9693 94.0027 99.9236 94.2009C99.6752 94.2478 99.4196 94.2402 99.1744 94.1787C98.9292 94.1172 98.7002 94.0032 98.5032 93.8446C98.7099 94.3567 98.7148 94.9219 98.7231 95.4737C98.7469 95.6503 98.7 95.8291 98.5925 95.9709C99.1844 95.9842 99.7599 96.1367 100.337 96.2742C100.584 96.3571 100.851 96.3571 101.098 96.2742C101.23 96.203 101.348 96.1087 101.446 95.9958C101.761 95.6759 102.09 95.3329 102.166 94.8871C102.186 94.6362 102.19 94.3844 102.179 94.133C102.209 93.8226 102.273 93.5165 102.369 93.2198C102.535 92.604 102.646 91.9744 102.7 91.3388C102.735 90.946 103.072 90.6311 103.25 90.2798C103.581 89.6169 103.928 88.9291 103.955 88.1866C103.978 87.9446 103.895 87.648 103.651 87.6165Z" fill="black"/>
<path d="M102.956 99.5424C102.32 99.2392 101.855 98.674 101.341 98.1901C100.359 97.2653 99.1581 96.6123 98.1263 95.7456C97.4434 95.1721 96.8316 94.5042 96.0792 94.0236C95.4175 93.6005 94.6671 93.3368 93.8866 93.253C93.7975 93.2374 93.706 93.2419 93.6188 93.2662C93.5202 93.3105 93.4343 93.3789 93.3691 93.4651C93.0357 93.8416 92.7395 94.2496 92.4844 94.6832C91.1765 96.9073 89.3196 98.7784 87.7801 100.848C87.7307 100.897 87.7015 100.963 87.6981 101.032C87.6947 101.101 87.7175 101.17 87.7619 101.223L88.0744 101.838C88.2497 102.181 88.5308 102.582 88.9012 102.514C89.0711 102.465 89.2233 102.368 89.3394 102.234L90.7449 100.887L92.2182 99.4745C93.0814 98.6458 93.9594 97.8006 94.5233 96.7433C94.9631 97.5073 95.7436 98.0078 96.2793 98.7088C96.4827 98.974 96.6481 99.2673 96.83 99.5491C97.1226 100.002 97.4533 100.426 97.784 100.848L99.4756 103.011C99.689 103.319 99.9536 103.588 100.258 103.807C100.658 104.06 101.146 104.128 101.617 104.17C102.252 104.228 102.889 104.251 103.527 104.239C104.013 104.231 104.519 104.199 104.949 103.982C105.379 103.765 105.744 103.319 105.721 102.834C105.695 102.579 105.612 102.334 105.478 102.116C104.881 101.006 104.091 100.078 102.956 99.5424Z" fill="#2F2E41"/>
<path d="M104.567 89.1627C104.882 89.1627 105.137 88.9053 105.137 88.5877C105.137 88.2701 104.882 88.0126 104.567 88.0126C104.252 88.0126 103.996 88.2701 103.996 88.5877C103.996 88.9053 104.252 89.1627 104.567 89.1627Z" fill="#E8E8F0"/>
<path d="M104.441 88.1551C104.57 88.4123 104.593 88.71 104.504 88.9837C104.416 89.253 104.292 89.5094 104.137 89.7461C104.003 89.9906 103.843 90.2196 103.659 90.4289C104.54 90.472 105.395 90.1256 106.172 89.7047C106.799 89.3732 107.424 88.9506 107.758 88.3192C107.659 88.3429 107.555 88.3456 107.455 88.3271C107.354 88.3085 107.259 88.2691 107.174 88.2115C107.006 88.094 106.855 87.9534 106.726 87.7938L106.285 87.2966C106.18 87.1875 106.089 87.0669 106.012 86.937C105.915 86.7605 105.874 86.5588 105.895 86.3586C105.719 86.543 105.522 86.7065 105.309 86.8458C104.993 87.053 104.648 87.2021 104.329 87.406C104.216 87.4789 103.966 87.5966 104.031 87.7375C104.095 87.8783 104.352 87.996 104.441 88.1551Z" fill="#FBBEBE"/>
<path opacity="0.1" d="M104.441 88.1551C104.57 88.4123 104.593 88.71 104.504 88.9837C104.416 89.253 104.292 89.5094 104.137 89.7461C104.003 89.9906 103.843 90.2196 103.659 90.4289C104.54 90.472 105.395 90.1256 106.172 89.7047C106.799 89.3732 107.424 88.9506 107.758 88.3192C107.659 88.3429 107.555 88.3456 107.455 88.3271C107.354 88.3085 107.259 88.2691 107.174 88.2115C107.006 88.094 106.855 87.9534 106.726 87.7938L106.285 87.2966C106.18 87.1875 106.089 87.0669 106.012 86.937C105.915 86.7605 105.874 86.5588 105.895 86.3586C105.719 86.543 105.522 86.7065 105.309 86.8458C104.993 87.053 104.648 87.2021 104.329 87.406C104.216 87.4789 103.966 87.5966 104.031 87.7375C104.095 87.8783 104.352 87.996 104.441 88.1551Z" fill="black"/>
<path d="M104.453 88.2413C104.363 88.3676 104.316 88.5184 104.316 88.6731C104.316 88.8277 104.363 88.9785 104.453 89.1048C104.477 89.1363 104.572 89.3335 104.618 89.3351C104.657 89.3318 104.693 89.3134 104.719 89.2838C104.919 89.0745 105.105 88.8532 105.278 88.6208C105.452 88.3855 105.704 88.2199 105.989 88.1535C106.334 88.0988 106.667 88.2828 106.969 88.4584C107.099 88.5232 107.213 88.6174 107.3 88.7335C107.364 88.8488 107.402 88.9766 107.411 89.1081C107.498 89.8982 107.531 90.6933 107.51 91.488C107.526 92.0609 107.488 92.6341 107.398 93.2C107.341 93.4917 107.257 93.7767 107.217 94.0717C107.188 94.3314 107.177 94.5927 107.183 94.854V95.9478C107.175 96.1482 107.19 96.3488 107.226 96.5461C107.294 96.7814 107.374 97.0132 107.465 97.2405C107.546 97.511 107.601 97.7884 107.631 98.0691L107.78 99.2011C107.827 99.559 107.862 99.9485 107.646 100.235C107.55 100.366 107.421 100.469 107.315 100.598C106.943 101.072 107.067 101.76 106.901 102.348C106.779 102.78 106.529 103.164 106.184 103.45C105.921 103.674 105.58 103.851 105.24 103.782C104.782 103.696 104.506 103.217 104.38 102.764C104.254 102.312 104.214 101.818 103.938 101.438C103.717 101.125 103.374 100.93 103.065 100.706C102.756 100.482 102.452 100.195 102.384 99.8176C102.354 99.6518 102.372 99.4861 102.356 99.3204C102.331 99.1092 102.251 98.9085 102.122 98.7394C101.993 98.5702 101.822 98.4389 101.625 98.3591C101.39 98.268 101.099 98.2348 100.964 98.0277C101.3 97.8158 101.546 97.4853 101.651 97.1012C101.754 96.7229 101.81 96.3332 101.817 95.9411L101.896 94.6252C101.931 94.0369 101.947 93.4535 102.205 92.9249C102.321 92.6895 102.465 92.4674 102.584 92.2338C102.744 91.9058 102.88 91.5668 102.991 91.2195C103.178 90.6809 103.366 90.1406 103.533 89.5953C103.6 89.3313 103.7 89.0768 103.831 88.838C103.985 88.5894 104.188 88.291 104.453 88.2413Z" fill="#E8E8F0"/>
<path d="M101.538 96.7913L101.885 96.8029L101.959 96.2775C101.969 96.1724 101.994 96.0692 102.032 95.9709C102.09 95.8673 102.157 95.7691 102.232 95.6776C102.574 95.1937 102.55 94.5506 102.634 93.9623C102.746 93.1784 103.074 92.4426 103.398 91.72L104.072 90.2135C104.133 90.0896 104.181 89.9603 104.216 89.8273C104.246 89.6806 104.26 89.5312 104.258 89.3815C104.258 89.1495 104.334 88.3026 104.339 88.0689C104.339 87.9828 104.15 88.0308 104.11 87.9546C104.026 87.7888 103.91 88.2396 103.752 88.3391C103.602 88.4537 103.493 88.6135 103.441 88.7948C103.295 89.1743 103.206 89.5738 103.07 89.9549C102.951 90.3453 102.735 90.6985 102.44 90.9808C102.303 91.1034 102.143 91.1996 102.012 91.3288C101.592 91.7448 101.552 92.4011 101.538 92.9861C101.528 93.3491 101.46 96.7913 101.538 96.7913Z" fill="#2F2E41"/>
<path d="M106.54 87.6132C106.209 87.7458 106.017 88.1104 105.923 88.4651C105.829 88.8197 105.789 89.1943 105.607 89.5092C105.184 90.2483 104.104 90.4638 103.805 91.2626C103.728 91.5323 103.688 91.8109 103.684 92.0912C103.631 92.663 103.442 93.2165 103.386 93.7883C103.357 94.2331 103.368 94.6795 103.418 95.1224L103.796 99.6353C103.87 100.3 103.831 100.972 103.682 101.624C104.071 101.68 104.467 101.615 104.817 101.437C105.172 101.271 105.496 101.052 105.837 100.863C106.424 100.532 107.072 100.308 107.585 99.8689C107.678 99.7963 107.758 99.7083 107.821 99.6087C107.903 99.419 107.959 99.2188 107.986 99.0138C108.03 98.8541 108.085 98.6979 108.152 98.5464C108.342 98.0915 108.507 97.6268 108.648 97.1543C108.744 96.8408 108.82 96.5214 108.874 96.198C108.916 95.9411 108.937 95.6809 108.96 95.4224C108.987 95.0157 109.067 94.6144 109.2 94.2292C109.528 93.3099 109.714 92.3458 109.751 91.3703C109.762 91.2294 109.753 91.0875 109.723 90.9493C109.665 90.7818 109.589 90.6216 109.494 90.472C109.337 90.1754 109.243 89.8489 109.094 89.5489C108.764 88.8694 108.17 88.354 107.55 87.9215C107.232 87.711 106.883 87.4823 106.54 87.6132Z" fill="#2F2E41"/>
<path d="M98.6454 94.9766C98.3768 94.8358 98.1337 94.651 97.9261 94.4297C97.8318 94.3186 97.7607 94.1943 97.6582 94.0849C97.4154 93.8255 97.1002 93.6453 96.7537 93.5679C96.4096 93.4919 96.0576 93.4579 95.7054 93.4668C95.4701 93.4505 95.2339 93.4792 95.0093 93.5513C94.8965 93.5883 94.7949 93.6532 94.7139 93.7402C94.633 93.8271 94.5753 93.9332 94.5463 94.0485C94.495 94.3302 94.6785 94.6037 94.8985 94.7827C95.103 94.9501 95.3436 95.0676 95.6012 95.1257C95.8114 95.1622 96.0233 95.1871 96.2362 95.2003C97.4863 95.3312 98.6024 96.0124 99.697 96.6339C100.659 97.1786 101.641 97.6885 102.64 98.1636C102.68 97.8637 102.697 97.5611 102.69 97.2587C102.69 97.0333 102.673 96.6886 102.46 96.556C102.212 96.4002 101.799 96.3654 101.524 96.2726C100.88 96.0618 100.251 95.8071 99.6408 95.5102C99.2952 95.3428 98.9645 95.1655 98.6454 94.9766Z" fill="#FBBEBE"/>
<path d="M104.11 87.8983C105.34 87.8983 106.338 86.8929 106.338 85.6526C106.338 84.4124 105.34 83.407 104.11 83.407C102.88 83.407 101.883 84.4124 101.883 85.6526C101.883 86.8929 102.88 87.8983 104.11 87.8983Z" fill="#FBBEBE"/>
<path d="M107.176 90.1588C106.999 90.4085 106.854 90.6797 106.744 90.9659C106.468 91.5344 106.037 92.0216 105.822 92.6232C105.594 93.248 105.602 93.9921 105.16 94.4844C105.072 94.559 105.005 94.6564 104.967 94.7661C104.964 94.8345 104.956 94.9027 104.944 94.9699C104.881 95.1489 104.588 95.1572 104.534 95.3395C104.519 95.3926 104.534 95.4506 104.507 95.5053C104.463 95.6229 104.309 95.6395 104.205 95.7108C103.988 95.8583 104.039 96.1997 103.874 96.4118C103.807 96.4906 103.72 96.5501 103.622 96.5845C103.525 96.6188 103.42 96.6267 103.318 96.6074C103.116 96.5646 102.92 96.4914 102.74 96.3903C102.676 96.3544 102.606 96.3324 102.533 96.3256C102.447 96.3274 102.363 96.3558 102.293 96.4068C101.881 96.6687 101.688 97.1891 101.691 97.6796C101.72 98.1702 101.836 98.6517 102.033 99.1016C102.057 99.1793 102.096 99.2515 102.148 99.3137C102.283 99.4579 102.521 99.4347 102.703 99.3535C102.874 99.2524 103.055 99.1712 103.244 99.1115C103.588 99.0486 103.925 99.2872 104.274 99.2673C104.529 99.2284 104.77 99.122 104.97 98.9591C105.324 98.7435 105.641 98.4721 105.909 98.1553C106.062 97.9547 106.174 97.726 106.308 97.5122C106.479 97.2496 106.667 96.9983 106.87 96.7598L108.155 95.1837C108.284 95.0345 108.399 94.8742 108.5 94.7048C108.616 94.4756 108.707 94.2344 108.77 93.9855C108.908 93.5702 108.997 93.1403 109.036 92.7044C109.043 92.3436 109.011 91.983 108.942 91.6288C108.899 91.2766 108.806 90.9323 108.666 90.6063C108.38 90.0262 107.7 89.5456 107.176 90.1588Z" fill="#2F2E41"/>
<path d="M111.651 87.2337C111.652 86.8355 111.56 86.4426 111.38 86.0873C111.201 85.7321 110.94 85.4246 110.619 85.1902C110.609 84.4834 110.349 83.803 109.886 83.2703C109.422 82.7376 108.785 82.3872 108.087 82.2817C107.952 81.6121 107.586 81.0117 107.053 80.5863C106.52 80.1609 105.854 79.9378 105.173 79.9562C104.491 79.9746 103.839 80.2334 103.329 80.687C102.82 81.1406 102.486 81.7599 102.388 82.4358C101.462 82.227 100.615 82.4988 100.461 83.0705C100.296 83.6688 100.957 84.3682 101.936 84.6334C102.243 84.7203 102.562 84.7522 102.88 84.7278C103.108 85.0628 103.403 85.3465 103.746 85.5605C104.09 85.7746 104.474 85.9143 104.874 85.9708C104.992 86.5114 105.258 87.0083 105.642 87.4057C106.026 87.803 106.513 88.085 107.049 88.2198C107.197 88.5785 107.427 88.8975 107.72 89.1512C107.72 89.2208 107.709 89.292 107.709 89.365C107.698 89.6197 107.739 89.874 107.829 90.1126C107.919 90.3511 108.056 90.5689 108.232 90.753C108.408 90.937 108.619 91.0834 108.853 91.1835C109.087 91.2835 109.339 91.3351 109.594 91.3351C109.848 91.3351 110.1 91.2835 110.334 91.1835C110.568 91.0834 110.779 90.937 110.955 90.753C111.131 90.5689 111.269 90.3511 111.359 90.1126C111.448 89.874 111.489 89.6197 111.479 89.365C111.479 89.079 111.417 88.7963 111.298 88.5363C111.531 88.1419 111.653 87.6918 111.651 87.2337Z" fill="#F86D70"/>
<path opacity="0.1" d="M101.089 83.1849C101.243 82.6131 102.081 82.3413 103.016 82.5501C103.124 81.8637 103.471 81.2378 103.996 80.783C104.52 80.3281 105.188 80.0736 105.881 80.0642C105.946 80.0642 106.01 80.0642 106.073 80.0642C105.805 79.9822 105.526 79.9409 105.246 79.9415C104.553 79.9509 103.885 80.2055 103.361 80.6603C102.836 81.1152 102.489 81.7411 102.381 82.4275C101.455 82.2187 100.608 82.4905 100.454 83.0622C100.289 83.6605 100.95 84.3599 101.929 84.6251C102.111 84.6757 102.298 84.7079 102.486 84.7212C101.557 84.4494 100.932 83.7699 101.089 83.1849Z" fill="black"/>
<path opacity="0.1" d="M108.337 89.481C108.337 89.4081 108.337 89.3368 108.348 89.2655C108.055 89.0126 107.825 88.6941 107.677 88.3358C107.142 88.1996 106.655 87.917 106.271 87.5196C105.887 87.1221 105.621 86.6255 105.503 86.0852C105.102 86.029 104.718 85.8894 104.374 85.6753C104.031 85.4612 103.736 85.1774 103.508 84.8422C103.323 84.8569 103.137 84.8519 102.953 84.8273C103.181 85.1361 103.469 85.3962 103.799 85.5926C104.129 85.7889 104.494 85.9175 104.874 85.9708C104.992 86.5114 105.258 87.0083 105.642 87.4057C106.026 87.803 106.513 88.085 107.049 88.2198C107.197 88.5785 107.427 88.8975 107.72 89.1512C107.72 89.2208 107.708 89.292 107.708 89.365C107.7 89.873 107.892 90.3638 108.244 90.7302C108.595 91.0966 109.077 91.3088 109.584 91.3206C109.214 91.1776 108.896 90.9248 108.673 90.5961C108.451 90.2674 108.333 89.8783 108.337 89.481Z" fill="black"/>
<path d="M105.129 86.4754C105.281 86.3602 105.279 86.1032 105.126 85.9013C104.973 85.6994 104.727 85.6291 104.575 85.7443C104.424 85.8594 104.426 86.1164 104.579 86.3183C104.732 86.5202 104.978 86.5905 105.129 86.4754Z" fill="#FBBEBE"/>
<path d="M51.8881 97.6498L54.0906 96.3521C53.7929 95.8422 53.4123 95.3857 52.9645 95.0014L48.8108 96.2958L52.065 94.3783C51.2592 93.936 50.3524 93.7116 49.4338 93.7273C48.5152 93.7429 47.6164 93.998 46.8261 94.4674C46.0357 94.9368 45.3808 95.6044 44.926 96.4045C44.4712 97.2045 44.2321 98.1095 44.2322 99.0303C44.2322 101.959 46.6017 102.06 49.5235 102.06C52.4453 102.06 54.8149 101.959 54.8149 99.0303C54.8166 98.2881 54.6616 97.5538 54.3601 96.8759L51.8881 97.6498Z" fill="#6C63FF"/>
<path opacity="0.1" d="M52.4486 100.497C52.2141 100.261 51.952 100.055 51.6682 99.8822C51.2697 99.6154 50.8546 99.3436 50.3834 99.2541C49.97 99.1745 49.5434 99.2425 49.1217 99.2176C48.3896 99.1728 47.7004 98.8561 47.1887 98.3293C46.8878 98.0177 46.6513 97.6349 46.2892 97.3963C45.8844 97.1552 45.4069 97.0676 44.9432 97.1493C44.8088 97.1681 44.6757 97.1952 44.5447 97.2305C44.3374 97.8078 44.2317 98.4168 44.2322 99.0303C44.2322 101.959 46.6017 102.06 49.5235 102.06C50.9423 102.06 52.2287 102.037 53.1795 101.677L53.0141 101.38C52.864 101.063 52.6739 100.766 52.4486 100.497Z" fill="black"/>
</g>
<defs>
<linearGradient id="paint0_linear_131_256" x1="93.8385" y1="106.008" x2="93.8385" y2="79.5504" gradientUnits="userSpaceOnUse">
<stop stop-color="#808080" stop-opacity="0.25"/>
<stop offset="0.54" stop-color="#808080" stop-opacity="0.12"/>
<stop offset="1" stop-color="#808080" stop-opacity="0.1"/>
</linearGradient>
<clipPath id="clip0_131_256">
<rect width="189" height="110" fill="white"/>
</clipPath>
</defs>
</svg>
