<svg width="599" height="455" viewBox="0 0 599 455" fill="none" xmlns="http://www.w3.org/2000/svg">
<g clip-path="url(#clip0_14_225)">
<path d="M239.69 94.3565H237.505V34.5908C237.505 30.0483 236.608 25.5502 234.867 21.3535C233.126 17.1567 230.574 13.3435 227.357 10.1314C224.14 6.91937 220.32 4.37143 216.117 2.63308C211.913 0.894727 207.408 3.84879e-06 202.858 0H76.0311C66.8422 -1.74889e-05 58.0297 3.64434 51.5322 10.1313C45.0346 16.6184 41.3843 25.4167 41.3843 34.5907V362.47C41.3843 367.013 42.2805 371.511 44.0216 375.708C45.7628 379.904 48.3148 383.718 51.5321 386.93C54.7493 390.142 58.5688 392.69 62.7723 394.428C66.9758 396.166 71.4812 397.061 76.031 397.061H202.858C212.047 397.061 220.859 393.417 227.357 386.93C233.854 380.443 237.505 371.644 237.505 362.47V136.899H239.69V94.3565Z" fill="#3F3D56"/>
<path d="M204.256 8.99951H187.701C188.462 10.863 188.753 12.8849 188.547 14.8869C188.341 16.889 187.646 18.8098 186.521 20.4802C185.397 22.1506 183.878 23.5193 182.099 24.4657C180.32 25.4121 178.335 25.9072 176.319 25.9073H103.662C101.646 25.9072 99.6614 25.4121 97.8823 24.4657C96.1033 23.5193 94.5847 22.1506 93.4603 20.4802C92.3359 18.8098 91.6402 16.889 91.4345 14.8869C91.2288 12.8849 91.5194 10.863 92.2808 8.99951H76.8183C73.4205 8.99951 70.056 9.66768 66.9168 10.9659C63.7776 12.264 60.9253 14.1668 58.5227 16.5655C56.1201 18.9642 54.2143 21.8119 52.914 24.946C51.6137 28.0801 50.9444 31.4392 50.9444 34.8315V362.23C50.9444 365.622 51.6137 368.981 52.914 372.115C54.2143 375.249 56.1201 378.097 58.5227 380.496C60.9253 382.895 63.7776 384.797 66.9168 386.096C70.0559 387.394 73.4204 388.062 76.8182 388.062H204.256C207.654 388.062 211.018 387.394 214.157 386.096C217.296 384.797 220.149 382.895 222.551 380.496C224.954 378.097 226.86 375.249 228.16 372.115C229.46 368.981 230.13 365.622 230.13 362.23V34.8315C230.13 31.4392 229.46 28.0801 228.16 24.946C226.86 21.8119 224.954 18.9642 222.551 16.5655C220.149 14.1668 217.296 12.264 214.157 10.9659C211.018 9.66768 207.654 8.99951 204.256 8.99951Z" fill="white"/>
<path d="M280.34 397.118H0.733871C0.539235 397.118 0.352571 397.041 0.214943 396.903C0.0773144 396.766 -3.8147e-06 396.579 -3.8147e-06 396.385C-3.8147e-06 396.191 0.0773144 396.004 0.214943 395.867C0.352571 395.73 0.539235 395.652 0.733871 395.652H280.34C280.535 395.652 280.722 395.73 280.859 395.867C280.997 396.004 281.074 396.191 281.074 396.385C281.074 396.579 280.997 396.766 280.859 396.903C280.722 397.041 280.535 397.118 280.34 397.118Z" fill="#CBCBCB"/>
<path d="M140.537 253.276C174.764 253.276 202.51 225.575 202.51 191.403C202.51 157.232 174.764 129.53 140.537 129.53C106.31 129.53 78.5641 157.232 78.5641 191.403C78.5641 225.575 106.31 253.276 140.537 253.276Z" fill="#15689E"/>
<path d="M134.396 215.005C133.002 215.008 131.644 214.558 130.529 213.722L130.46 213.671L115.895 202.547C115.221 202.031 114.655 201.387 114.229 200.652C113.804 199.918 113.528 199.107 113.417 198.265C113.305 197.424 113.361 196.569 113.581 195.749C113.8 194.93 114.18 194.161 114.697 193.488C115.214 192.814 115.859 192.249 116.595 191.824C117.331 191.4 118.143 191.124 118.986 191.013C119.828 190.902 120.685 190.957 121.506 191.177C122.327 191.396 123.097 191.775 123.771 192.291L133.205 199.513L155.497 170.478C156.014 169.804 156.659 169.239 157.394 168.815C158.13 168.391 158.942 168.115 159.784 168.004C160.627 167.893 161.483 167.948 162.303 168.168C163.124 168.387 163.894 168.765 164.568 169.281L164.57 169.283L164.431 169.475L164.574 169.283C165.934 170.327 166.824 171.866 167.048 173.565C167.273 175.263 166.813 176.98 165.77 178.341L139.55 212.478C138.943 213.264 138.163 213.901 137.27 214.338C136.377 214.775 135.396 215.001 134.402 214.998L134.396 215.005Z" fill="white"/>
<path d="M509.489 403.199C510.243 401.982 511.13 400.853 512.135 399.832C512.549 399.403 512.987 398.999 513.437 398.606C516.177 396.171 519.518 394.508 523.114 393.79C526.711 393.071 530.435 393.321 533.903 394.516C537.371 395.71 540.458 397.805 542.846 400.585C545.234 403.365 546.837 406.73 547.49 410.334C550.517 399.159 542.638 388.151 534.717 379.696C526.791 371.244 517.732 361.972 517.778 350.39C517.8 343.945 520.958 338.196 525.725 333.934C525.872 333.804 526.019 333.675 526.169 333.551C531.932 328.62 539.345 326.04 546.929 326.328C561.019 327.081 573.321 336.536 581.865 347.75C595.617 365.794 601.643 391.123 592.016 411.663C583.548 429.729 565.487 440.456 547.055 449.081C544.481 450.285 541.912 451.454 539.349 452.586C539.332 452.59 539.313 452.602 539.296 452.607C539.173 452.661 539.049 452.715 538.934 452.771C538.405 453.004 537.875 453.237 537.351 453.467L537.594 453.626L538.352 454.115C538.089 453.957 537.829 453.802 537.566 453.644C537.488 453.595 537.405 453.55 537.327 453.502C528.275 448.079 519.096 442.341 512.841 433.875C506.355 425.084 503.747 412.492 509.489 403.199Z" fill="#F1F1F1"/>
<path d="M569.889 382.783C571.894 387.336 573.223 392.157 573.834 397.093C574.315 401.494 574.134 405.942 573.297 410.29C571.5 419.225 567.579 427.598 561.866 434.705C557.555 440.101 552.579 444.931 547.055 449.081C544.481 450.285 541.912 451.453 539.349 452.585C539.332 452.59 539.313 452.602 539.296 452.606C539.173 452.66 539.049 452.715 538.934 452.77C538.405 453.003 537.875 453.236 537.351 453.467L537.594 453.625L538.352 454.115C538.089 453.956 537.829 453.802 537.566 453.643C537.488 453.595 537.406 453.55 537.328 453.502C539.32 446.544 539.613 439.211 538.182 432.117C536.751 425.023 533.637 418.375 529.103 412.73C524.544 407.156 518.73 402.736 512.135 399.832C512.55 399.403 512.986 398.999 513.437 398.605C515.977 399.77 518.409 401.157 520.705 402.749C528.915 408.414 535.08 416.568 538.288 426.004C541.151 434.565 541.509 443.763 539.319 452.519C539.773 452.222 540.229 451.918 540.673 451.615C549.106 445.937 556.879 439.118 562.734 430.755C567.783 423.687 571.014 415.489 572.143 406.881C573.265 397.477 570.908 388.231 566.704 379.84C562.06 370.864 556.209 362.564 549.313 355.171C542.387 347.573 534.556 340.85 525.994 335.152C525.801 335.022 525.665 334.823 525.615 334.596C525.565 334.369 525.605 334.132 525.725 333.933C525.817 333.752 525.977 333.615 526.169 333.551C526.267 333.526 526.37 333.523 526.469 333.543C526.568 333.563 526.661 333.605 526.741 333.666C527.798 334.37 528.846 335.081 529.882 335.812C538.504 341.908 546.335 349.049 553.193 357.072C559.821 364.806 565.853 373.398 569.889 382.783Z" fill="white"/>
<path d="M385.315 28.7289C392.584 28.7289 398.476 22.8459 398.476 15.5888C398.476 8.33175 392.584 2.44873 385.315 2.44873C378.046 2.44873 372.154 8.33175 372.154 15.5888C372.154 22.8459 378.046 28.7289 385.315 28.7289Z" fill="#F1F1F1"/>
<path d="M548.969 204.574C553.401 204.574 556.993 200.988 556.993 196.563C556.993 192.139 553.401 188.552 548.969 188.552C544.537 188.552 540.945 192.139 540.945 196.563C540.945 200.988 544.537 204.574 548.969 204.574Z" fill="#F1F1F1"/>
<path d="M314.129 226.555C318.561 226.555 322.153 222.968 322.153 218.544C322.153 214.119 318.561 210.533 314.129 210.533C309.697 210.533 306.105 214.119 306.105 218.544C306.105 222.968 309.697 226.555 314.129 226.555Z" fill="#F1F1F1"/>
<path d="M318.66 455H598.266C598.461 455 598.647 454.923 598.785 454.785C598.923 454.648 599 454.462 599 454.267C599 454.073 598.923 453.887 598.785 453.749C598.647 453.612 598.461 453.535 598.266 453.535H318.66C318.465 453.535 318.278 453.612 318.141 453.749C318.003 453.887 317.926 454.073 317.926 454.267C317.926 454.462 318.003 454.648 318.141 454.785C318.278 454.923 318.465 455 318.66 455Z" fill="#CBCBCB"/>
<path d="M567.41 70.8035C567.777 68.2011 567.175 65.5546 565.719 63.3655C564.262 61.1765 562.051 59.597 559.506 58.9263C556.961 58.2556 554.258 58.5403 551.909 59.7265C549.56 60.9128 547.728 62.9181 546.761 65.3624L524.072 91.3321L530.729 109.896L553.548 79.5515C555.037 80.0277 556.612 80.1722 558.163 79.9747C559.714 79.7773 561.203 79.2427 562.524 78.4086C563.846 77.5746 564.968 76.4614 565.812 75.1474C566.657 73.8334 567.202 72.3506 567.41 70.8035Z" fill="#FFB7B7"/>
<path d="M473.359 171.851L548.676 91.6006L538.517 75.4756L444.05 155.239L473.359 171.851Z" fill="#3F3D56"/>
<path d="M456.549 123.092C471.14 123.092 482.969 111.283 482.969 96.7152C482.969 82.1477 471.14 70.3384 456.549 70.3384C441.958 70.3384 430.13 82.1477 430.13 96.7152C430.13 111.283 441.958 123.092 456.549 123.092Z" fill="#2F2E41"/>
<path d="M458.673 81.8144C464.358 76.0587 471.238 71.6171 478.827 68.8024C483.699 67.0004 489.002 65.887 494.096 66.9104C499.189 67.9337 504.006 71.4517 505.427 76.4411C506.589 80.5209 505.389 84.9137 503.586 88.7543C501.783 92.5949 499.375 96.1563 497.917 100.14C496.429 104.205 495.982 108.577 496.615 112.858C497.249 117.14 498.943 121.195 501.545 124.657C504.147 128.119 507.573 130.877 511.514 132.681C515.454 134.485 519.783 135.278 524.108 134.989C519.104 135.659 514.491 138.007 509.599 139.256C504.707 140.506 498.934 140.421 495.299 136.923C491.452 133.221 491.375 127.202 491.561 121.871C491.838 113.947 492.114 106.023 492.391 98.0992C492.532 94.0581 492.652 89.8875 491.192 86.1157C489.733 82.3439 486.263 79.0411 482.214 79.0755C479.144 79.1014 476.427 80.9579 473.966 82.7887C471.504 84.6195 468.899 86.5729 465.841 86.8452C462.784 87.1175 459.293 84.8585 459.522 81.8025L458.673 81.8144Z" fill="#2F2E41"/>
<path d="M356.206 273.823C353.67 274.526 350.963 274.276 348.599 273.12C346.235 271.965 344.377 269.983 343.379 267.551C342.38 265.12 342.31 262.407 343.181 259.927C344.052 257.447 345.804 255.372 348.105 254.095L370.929 228.243L390.233 232.407L363.082 258.958C363.749 260.37 364.099 261.911 364.105 263.472C364.112 265.032 363.775 266.576 363.12 267.993C362.464 269.41 361.506 270.667 360.311 271.674C359.117 272.681 357.715 273.415 356.206 273.823Z" fill="#FFB7B7"/>
<path d="M431.297 181.271L374.411 252.562L357.071 244.613L423.934 140.685L431.297 181.271Z" fill="#3F3D56"/>
<path d="M385.907 396.54L372.349 396.327L373.98 442.462H385.904L385.907 396.54Z" fill="#FFB7B7"/>
<path d="M388.946 438.575L365.462 438.574H365.461C361.491 438.574 357.685 440.148 354.878 442.95C352.071 445.752 350.495 449.553 350.494 453.516V454.001L388.946 454.003L388.946 438.575Z" fill="#2F2E41"/>
<path d="M475.672 384.304L460.862 393.796L490.487 429.379L500.522 422.947L475.672 384.304Z" fill="#FFB7B7"/>
<path d="M500.978 418.035L481.215 430.702L481.215 430.703C477.875 432.844 475.523 436.222 474.678 440.094C473.833 443.966 474.562 448.015 476.707 451.349L476.969 451.758L509.326 431.018L500.978 418.035Z" fill="#2F2E41"/>
<path d="M480.948 243.429C480.948 243.429 448.042 134.311 437.466 132.837C426.891 131.362 409.852 160.835 409.852 160.835C387.76 188.976 364.98 280.132 364.98 280.132C364.98 280.132 402.956 282.505 430.716 297.25C458.476 311.996 491.237 296.504 491.237 296.504L480.948 243.429Z" fill="#3F3D56"/>
<path opacity="0.1" d="M480.948 243.429C480.948 243.429 448.042 134.311 437.466 132.837C426.891 131.362 414.18 161.134 414.18 161.134C403.172 206.561 364.98 280.132 364.98 280.132C364.98 280.132 402.956 282.505 430.716 297.25C458.476 311.996 491.237 296.504 491.237 296.504L480.948 243.429Z" fill="black"/>
<path d="M453.951 210.782V265.612L460.414 345.039L492.705 405.119L477.293 416.11L433.261 358.96L415.845 302.214L388.494 427.833L367.946 426.367L382.217 252.199L409.297 203.175L453.951 210.782Z" fill="#2F2E41"/>
<path d="M420.773 157.748C410.498 168.006 420.039 178.996 420.039 178.996L408.297 205.373L454.531 217.828L470.688 145.748L459.68 134.025C437.664 133.292 437.652 132.836 437.652 132.836C433.794 136.605 420.773 157.748 420.773 157.748Z" fill="#15689E"/>
<path d="M472.55 138.28C470.45 136.733 468.064 135.616 465.529 134.996C462.994 134.376 460.361 134.264 457.782 134.667C455.204 135.07 452.731 135.98 450.507 137.344C448.283 138.708 446.352 140.498 444.826 142.612C433.203 158.77 422.456 184.86 437.264 217.399C461.041 269.647 481.732 296.394 490.143 296.391C490.511 296.394 490.876 296.337 491.224 296.221C496.402 294.468 503.888 285.721 505.243 278.012C505.729 275.253 505.613 271.41 502.308 268.771C492.815 261.191 475.773 237.587 470.457 206.519C467.519 189.353 473.216 173.715 478.513 163.62C480.75 159.443 481.405 154.601 480.357 149.982C479.308 145.362 476.628 141.274 472.806 138.468L472.55 138.28Z" fill="#3F3D56"/>
<path d="M457.908 120.5C467.332 115.357 470.796 103.559 465.644 94.1502C460.492 84.741 448.676 81.2829 439.251 86.4265C429.827 91.5701 426.363 103.367 431.515 112.777C436.667 122.186 448.484 125.644 457.908 120.5Z" fill="#FFB7B7"/>
<path d="M421.229 101.995H449.311L449.599 97.9701L451.039 101.995H455.363L455.934 94.0174L458.788 101.995H467.155V101.6C467.148 96.0459 464.936 90.7211 461.002 86.7937C457.068 82.8663 451.735 80.6572 446.172 80.6509H442.212C436.649 80.6571 431.316 82.8663 427.382 86.7937C423.448 90.721 421.236 96.0459 421.229 101.6V101.995Z" fill="#2F2E41"/>
<path d="M462.912 116.464L474.896 112.582V83.5264H452.26L452.821 84.085C460.618 91.8595 469.29 119.442 462.912 116.464Z" fill="#2F2E41"/>
</g>
<defs>
<clipPath id="clip0_14_225">
<rect width="599" height="455" fill="white"/>
</clipPath>
</defs>
</svg>
