<svg width="138" height="43" viewBox="0 0 138 43" fill="none" xmlns="http://www.w3.org/2000/svg">
<path d="M0 21V0H3.10122L12.0831 15.33H10.4154L19.251 0H22.3522L22.4107 21H18.7829L18.7536 5.79H19.5143L12.0245 18.6H10.3277L2.72088 5.79H3.59859V21H0Z" fill="white"/>
<path d="M28.354 21V0H32.0988V14.91L43.0994 0H46.6395V21H42.8946V6.12L31.894 21H28.354Z" fill="white"/>
<path d="M52.5644 21V0H60.9904C62.8043 0 64.3549 0.3 65.6422 0.900001C66.949 1.5 67.9535 2.36 68.6557 3.48C69.3578 4.6 69.7089 5.93 69.7089 7.47C69.7089 9.01 69.3578 10.34 68.6557 11.46C67.9535 12.58 66.949 13.44 65.6422 14.04C64.3549 14.64 62.8043 14.94 60.9904 14.94H54.6709L56.3678 13.11V21H52.5644ZM56.3678 13.53L54.6709 11.64H60.8148C62.4922 11.64 63.7503 11.28 64.589 10.56C65.4472 9.82 65.8763 8.79 65.8763 7.47C65.8763 6.13 65.4472 5.1 64.589 4.38C63.7503 3.66 62.4922 3.3 60.8148 3.3H54.6709L56.3678 1.38V13.53Z" fill="white"/>
<path d="M77.0007 8.73H87.1821V11.94H77.0007V8.73ZM77.2933 17.73H88.8497V21H73.4899V0H88.4401V3.27H77.2933V17.73Z" fill="white"/>
<path d="M107.667 0H111.47V21H107.667V0ZM97.0759 21H93.2725V0H97.0759V21ZM107.959 12H96.7541V8.67H107.959V12Z" fill="white"/>
<path d="M114.794 21L124.01 0H127.755L137 21H133.021L125.092 2.07H126.614L118.715 21H114.794ZM119.036 16.14L120.06 13.08H131.119L132.143 16.14H119.036Z" fill="white"/>
<path d="M0 39.48V31.08H1.136V37.752L6.752 31.08H7.76V39.48H6.624V32.792L1.024 39.48H0Z" fill="white"/>
<path d="M11.1156 39.48V31.08H12.2516V34.792H17.5476V31.08H18.6836V39.48H17.5476V35.768H12.2516V39.48H11.1156Z" fill="white"/>
<path d="M23.6125 39.48V31.768L23.9005 32.072H20.4285V31.08H27.9325V32.072H24.4605L24.7485 31.768V39.48H23.6125Z" fill="white"/>
<path d="M32.8844 39.56C32.0097 39.56 31.2417 39.3787 30.5804 39.016C29.919 38.6427 29.4017 38.136 29.0284 37.496C28.655 36.8453 28.4684 36.104 28.4684 35.272C28.4684 34.44 28.6444 33.704 28.9964 33.064C29.359 32.424 29.8497 31.9227 30.4684 31.56C31.0977 31.1867 31.8017 31 32.5804 31C33.3697 31 34.0684 31.1813 34.6764 31.544C35.295 31.896 35.7804 32.3973 36.1324 33.048C36.4844 33.688 36.6604 34.4293 36.6604 35.272C36.6604 35.3253 36.655 35.384 36.6444 35.448C36.6444 35.5013 36.6444 35.56 36.6444 35.624H29.3324V34.776H36.0364L35.5884 35.112C35.5884 34.504 35.455 33.9653 35.1884 33.496C34.9324 33.016 34.5804 32.6427 34.1324 32.376C33.6844 32.1093 33.167 31.976 32.5804 31.976C32.0044 31.976 31.487 32.1093 31.0284 32.376C30.5697 32.6427 30.2124 33.016 29.9564 33.496C29.7004 33.976 29.5724 34.5253 29.5724 35.144V35.32C29.5724 35.96 29.711 36.5253 29.9884 37.016C30.2764 37.496 30.671 37.8747 31.1724 38.152C31.6844 38.4187 32.2657 38.552 32.9164 38.552C33.4284 38.552 33.903 38.4613 34.3404 38.28C34.7884 38.0987 35.1724 37.8213 35.4924 37.448L36.1324 38.184C35.759 38.632 35.2897 38.9733 34.7244 39.208C34.1697 39.4427 33.5564 39.56 32.8844 39.56Z" fill="white"/>
<path d="M43.611 39.56C42.8857 39.56 42.2297 39.3947 41.643 39.064C41.0563 38.7227 40.587 38.2373 40.235 37.608C39.8937 36.968 39.723 36.1893 39.723 35.272C39.723 34.3547 39.8937 33.5813 40.235 32.952C40.5763 32.312 41.0403 31.8267 41.627 31.496C42.2137 31.1653 42.875 31 43.611 31C44.411 31 45.1257 31.1813 45.755 31.544C46.395 31.896 46.8963 32.3973 47.259 33.048C47.6217 33.688 47.803 34.4293 47.803 35.272C47.803 36.1253 47.6217 36.872 47.259 37.512C46.8963 38.152 46.395 38.6533 45.755 39.016C45.1257 39.3787 44.411 39.56 43.611 39.56ZM39.275 42.584V31.08H40.363V33.608L40.251 35.288L40.411 36.984V42.584H39.275ZM43.531 38.552C44.1283 38.552 44.6617 38.4187 45.131 38.152C45.6003 37.8747 45.9737 37.4907 46.251 37C46.5283 36.4987 46.667 35.9227 46.667 35.272C46.667 34.6213 46.5283 34.0507 46.251 33.56C45.9737 33.0693 45.6003 32.6853 45.131 32.408C44.6617 32.1307 44.1283 31.992 43.531 31.992C42.9337 31.992 42.395 32.1307 41.915 32.408C41.4457 32.6853 41.0723 33.0693 40.795 33.56C40.5283 34.0507 40.395 34.6213 40.395 35.272C40.395 35.9227 40.5283 36.4987 40.795 37C41.0723 37.4907 41.4457 37.8747 41.915 38.152C42.395 38.4187 42.9337 38.552 43.531 38.552Z" fill="white"/>
<path d="M50.3438 39.48V31.08H51.4798V34.792H56.7757V31.08H57.9118V39.48H56.7757V35.768H51.4798V39.48H50.3438Z" fill="white"/>
<path d="M64.8406 39.56C63.966 39.56 63.198 39.3787 62.5366 39.016C61.8753 38.6427 61.358 38.136 60.9846 37.496C60.6113 36.8453 60.4246 36.104 60.4246 35.272C60.4246 34.44 60.6006 33.704 60.9526 33.064C61.3153 32.424 61.806 31.9227 62.4246 31.56C63.054 31.1867 63.758 31 64.5366 31C65.326 31 66.0246 31.1813 66.6326 31.544C67.2513 31.896 67.7366 32.3973 68.0886 33.048C68.4406 33.688 68.6166 34.4293 68.6166 35.272C68.6166 35.3253 68.6113 35.384 68.6006 35.448C68.6006 35.5013 68.6006 35.56 68.6006 35.624H61.2886V34.776H67.9926L67.5446 35.112C67.5446 34.504 67.4113 33.9653 67.1446 33.496C66.8886 33.016 66.5366 32.6427 66.0886 32.376C65.6406 32.1093 65.1233 31.976 64.5366 31.976C63.9606 31.976 63.4433 32.1093 62.9846 32.376C62.526 32.6427 62.1686 33.016 61.9126 33.496C61.6566 33.976 61.5286 34.5253 61.5286 35.144V35.32C61.5286 35.96 61.6673 36.5253 61.9446 37.016C62.2326 37.496 62.6273 37.8747 63.1286 38.152C63.6406 38.4187 64.222 38.552 64.8726 38.552C65.3846 38.552 65.8593 38.4613 66.2966 38.28C66.7446 38.0987 67.1286 37.8213 67.4486 37.448L68.0886 38.184C67.7153 38.632 67.246 38.9733 66.6806 39.208C66.126 39.4427 65.5126 39.56 64.8406 39.56Z" fill="white"/>
<path d="M72.4562 39.48V31.768L72.7442 32.072H69.2722V31.08H76.7762V32.072H73.3042L73.5922 31.768V39.48H72.4562Z" fill="white"/>
<path d="M77.5034 35.64V34.648H81.6954V35.64H77.5034Z" fill="white"/>
<path d="M89.5848 39.48V37.624L89.5368 37.32V34.216C89.5368 33.5013 89.3341 32.952 88.9287 32.568C88.5341 32.184 87.9421 31.992 87.1527 31.992C86.6087 31.992 86.0914 32.0827 85.6008 32.264C85.1101 32.4453 84.6941 32.6853 84.3528 32.984L83.8408 32.136C84.2674 31.7733 84.7794 31.496 85.3768 31.304C85.9741 31.1013 86.6034 31 87.2648 31C88.3528 31 89.1901 31.272 89.7767 31.816C90.3741 32.3493 90.6728 33.1653 90.6728 34.264V39.48H89.5848ZM86.6888 39.56C86.0594 39.56 85.5101 39.4587 85.0407 39.256C84.5821 39.0427 84.2301 38.7547 83.9847 38.392C83.7394 38.0187 83.6168 37.592 83.6168 37.112C83.6168 36.6747 83.7181 36.28 83.9208 35.928C84.1341 35.5653 84.4754 35.2773 84.9447 35.064C85.4248 34.84 86.0648 34.728 86.8648 34.728H89.7607V35.576H86.8968C86.0861 35.576 85.5208 35.72 85.2008 36.008C84.8914 36.296 84.7368 36.6533 84.7368 37.08C84.7368 37.56 84.9234 37.944 85.2968 38.232C85.6701 38.52 86.1928 38.664 86.8648 38.664C87.5048 38.664 88.0541 38.52 88.5127 38.232C88.9821 37.9333 89.3234 37.5067 89.5368 36.952L89.7928 37.736C89.5794 38.2907 89.2061 38.7333 88.6728 39.064C88.1501 39.3947 87.4888 39.56 86.6888 39.56Z" fill="white"/>
<path d="M93.7969 39.48V31.08H101.349V39.48H100.213V31.768L100.501 32.072H94.6449L94.9329 31.768V39.48H93.7969Z" fill="white"/>
<path d="M106.278 39.48V31.768L106.566 32.072H103.094V31.08H110.598V32.072H107.126L107.414 31.768V39.48H106.278Z" fill="white"/>
<path d="M115.55 39.56C114.675 39.56 113.907 39.3787 113.246 39.016C112.585 38.6427 112.067 38.136 111.694 37.496C111.321 36.8453 111.134 36.104 111.134 35.272C111.134 34.44 111.31 33.704 111.662 33.064C112.025 32.424 112.515 31.9227 113.134 31.56C113.763 31.1867 114.467 31 115.246 31C116.035 31 116.734 31.1813 117.342 31.544C117.961 31.896 118.446 32.3973 118.798 33.048C119.15 33.688 119.326 34.4293 119.326 35.272C119.326 35.3253 119.321 35.384 119.31 35.448C119.31 35.5013 119.31 35.56 119.31 35.624H111.998V34.776H118.702L118.254 35.112C118.254 34.504 118.121 33.9653 117.854 33.496C117.598 33.016 117.246 32.6427 116.798 32.376C116.35 32.1093 115.833 31.976 115.246 31.976C114.67 31.976 114.153 32.1093 113.694 32.376C113.235 32.6427 112.878 33.016 112.622 33.496C112.366 33.976 112.238 34.5253 112.238 35.144V35.32C112.238 35.96 112.377 36.5253 112.654 37.016C112.942 37.496 113.337 37.8747 113.838 38.152C114.35 38.4187 114.931 38.552 115.582 38.552C116.094 38.552 116.569 38.4613 117.006 38.28C117.454 38.0987 117.838 37.8213 118.158 37.448L118.798 38.184C118.425 38.632 117.955 38.9733 117.39 39.208C116.835 39.4427 116.222 39.56 115.55 39.56Z" fill="white"/>
<path d="M128.101 39.48L124.645 35.32L125.589 34.76L129.445 39.48H128.101ZM121.941 39.48V31.08H123.077V39.48H121.941ZM122.725 35.736V34.76H125.429V35.736H122.725ZM125.685 35.4L124.629 35.24L127.973 31.08H129.205L125.685 35.4Z" fill="white"/>
<path d="M136.397 39.48V37.624L136.349 37.32V34.216C136.349 33.5013 136.147 32.952 135.741 32.568C135.347 32.184 134.755 31.992 133.965 31.992C133.421 31.992 132.904 32.0827 132.413 32.264C131.923 32.4453 131.507 32.6853 131.165 32.984L130.653 32.136C131.08 31.7733 131.592 31.496 132.189 31.304C132.787 31.1013 133.416 31 134.077 31C135.165 31 136.003 31.272 136.589 31.816C137.187 32.3493 137.485 33.1653 137.485 34.264V39.48H136.397ZM133.501 39.56C132.872 39.56 132.323 39.4587 131.853 39.256C131.395 39.0427 131.043 38.7547 130.797 38.392C130.552 38.0187 130.429 37.592 130.429 37.112C130.429 36.6747 130.531 36.28 130.733 35.928C130.947 35.5653 131.288 35.2773 131.757 35.064C132.237 34.84 132.877 34.728 133.677 34.728H136.573V35.576H133.709C132.899 35.576 132.333 35.72 132.013 36.008C131.704 36.296 131.549 36.6533 131.549 37.08C131.549 37.56 131.736 37.944 132.109 38.232C132.483 38.52 133.005 38.664 133.677 38.664C134.317 38.664 134.867 38.52 135.325 38.232C135.795 37.9333 136.136 37.5067 136.349 36.952L136.605 37.736C136.392 38.2907 136.019 38.7333 135.485 39.064C134.963 39.3947 134.301 39.56 133.501 39.56Z" fill="white"/>
</svg>
