<svg width="34" height="34" viewBox="0 0 34 34" fill="none" xmlns="http://www.w3.org/2000/svg">
<path fill-rule="evenodd" clip-rule="evenodd" d="M15.5929 22.1516L18.4362 19.3083C19.0554 18.6891 19.8925 18.3327 20.7681 18.3229C21.645 18.313 22.4889 18.6523 23.1094 19.2729L26.4879 22.6514C27.214 23.3775 27.214 24.5548 26.4879 25.2809C25.0837 26.6851 23.0786 27.411 21.0821 27.0459C20.3146 26.9056 19.4851 26.732 18.8985 26.5423C17.8747 26.2113 16.8009 25.8547 14.9972 24.4202C14.1777 23.7685 13.211 22.8978 12.0253 21.7122C10.8397 20.5266 9.9691 19.5599 9.3174 18.7404C7.88288 16.9366 7.52624 15.8629 7.19525 14.8391C7.00558 14.2524 6.83197 13.4229 6.69164 12.6555C6.32655 10.659 7.05244 8.65391 8.45666 7.24969C9.18279 6.52356 10.3601 6.52356 11.0862 7.24969L14.4647 10.6282C15.0852 11.2487 15.4246 12.0926 15.4147 12.9694C15.4049 13.845 15.0484 14.6822 14.4293 15.3014L11.586 18.1446C12.0963 18.733 12.7312 19.4129 13.5279 20.2096C14.3246 21.0063 15.0046 21.6413 15.5929 22.1516ZM10.2724 16.453L12.9267 13.7988C13.1579 13.5675 13.2863 13.2592 13.2899 12.9456C13.2934 12.6332 13.1731 12.3418 12.9621 12.1308L9.77703 8.94571C8.94337 9.88526 8.56955 11.1116 8.78198 12.2733C8.92127 13.035 9.07441 13.7437 9.2172 14.1854L9.22791 14.2185C9.44015 14.8753 9.64497 15.5091 10.2724 16.453ZM17.2845 23.4652C18.2285 24.0926 18.8623 24.2974 19.519 24.5097C19.5301 24.5132 19.5411 24.5168 19.5522 24.5204C19.9938 24.6632 20.7026 24.8163 21.4643 24.9556C22.626 25.168 23.8523 24.7942 24.7919 23.9605L21.6068 20.7755C21.3958 20.5645 21.1044 20.4442 20.792 20.4477C20.4784 20.4512 20.17 20.5797 19.9388 20.8109L17.2845 23.4652Z" fill="white"/>
</svg>
